<?xml version="1.0" encoding="UTF-8" standalone="no"?>
<!-- Created with Inkscape (http://www.inkscape.org/) -->

<svg
   xmlns:dc="http://purl.org/dc/elements/1.1/"
   xmlns:cc="http://creativecommons.org/ns#"
   xmlns:rdf="http://www.w3.org/1999/02/22-rdf-syntax-ns#"
   xmlns:svg="http://www.w3.org/2000/svg"
   xmlns="http://www.w3.org/2000/svg"
   xmlns:sodipodi="http://sodipodi.sourceforge.net/DTD/sodipodi-0.dtd"
   xmlns:inkscape="http://www.inkscape.org/namespaces/inkscape"
   width="257mm"
   height="454.55557mm"
   viewBox="0 0 257 454.55557"
   version="1.1"
   id="svg8"
   inkscape:version="0.92.4 (5da689c313, 2019-01-14)"
   sodipodi:docname="stagger back.svg">
  <defs
     id="defs2" />
  <sodipodi:namedview
     id="base"
     pagecolor="#ffffff"
     bordercolor="#666666"
     borderopacity="1.0"
     inkscape:pageopacity="0.0"
     inkscape:pageshadow="2"
     inkscape:zoom="0.30952682"
     inkscape:cx="571.84955"
     inkscape:cy="902.24894"
     inkscape:document-units="mm"
     inkscape:current-layer="layer1"
     showgrid="false"
     inkscape:window-width="1366"
     inkscape:window-height="705"
     inkscape:window-x="-8"
     inkscape:window-y="-8"
     inkscape:window-maximized="1"
     showguides="false" />
  <metadata
     id="metadata5">
    <rdf:RDF>
      <cc:Work
         rdf:about="">
        <dc:format>image/svg+xml</dc:format>
        <dc:type
           rdf:resource="http://purl.org/dc/dcmitype/StillImage" />
        <dc:title />
      </cc:Work>
    </rdf:RDF>
  </metadata>
  <g
     inkscape:label="Layer 1"
     inkscape:groupmode="layer"
     id="layer1"
     transform="translate(-57.124069,58.789692)">
    <rect
       style="fill:#b4b4b4;fill-opacity:1;stroke:#00b2ee;stroke-width:3;stroke-linecap:round;stroke-miterlimit:4;stroke-dasharray:none;stroke-dashoffset:0;stroke-opacity:1"
       id="rect821"
       width="254"
       height="451.55557"
       x="58.624069"
       y="-57.289692" />
    <path
       style="fill:#00b2ee;fill-opacity:1;stroke:none;stroke-width:0.23940951px;stroke-linecap:butt;stroke-linejoin:miter;stroke-opacity:1"
       d="m 312.62407,352.71901 -233.639671,0.0341 -20.87986,41.51276 H 312.10454 Z"
       id="path966-7"
       inkscape:connector-curvature="0"
       sodipodi:nodetypes="ccccc" />
    <g
       id="g1041"
       transform="matrix(0.34383986,0,0,0.34383986,271.77254,357.01949)"
       inkscape:transform-center-x="2.2217028"
       inkscape:transform-center-y="2.2217235"
       style="fill:#ffffff;fill-opacity:1;stroke:#ffffff;stroke-opacity:1">
      <path
         id="path1021"
         d="m 50,33.112 c -9.312,0 -16.888,7.576 -16.888,16.888 0,9.314 7.576,16.893 16.888,16.893 9.314,0 16.893,-7.578 16.893,-16.893 C 66.893,40.688 59.314,33.112 50,33.112 Z M 49.998,64 C 42.269,64 36,57.725 36,49.998 36,42.269 42.269,36 49.998,36 57.726,36 64,42.269 64,49.998 64,57.725 57.726,64 49.998,64 Z"
         inkscape:connector-curvature="0"
         style="fill:#ffffff;fill-opacity:1;stroke:#ffffff;stroke-opacity:1" />
      <path
         id="path1023"
         d="M 50,7.5 C 26.528,7.5 7.5,26.528 7.5,50 7.5,73.467 26.528,92.5 50,92.5 73.467,92.5 92.5,73.467 92.5,50 92.5,26.528 73.467,7.5 50,7.5 Z m 35.934,30.143 -9.591,2.741 C 75.23,37.342 73.582,34.494 71.49,31.998 l 7.173,-6.93 c 3.203,3.685 5.683,7.973 7.271,12.575 z M 62.356,14.067 c 4.607,1.588 8.896,4.067 12.576,7.269 l -6.936,7.169 C 65.503,26.417 62.656,24.771 59.61,23.659 Z M 70.893,50 C 70.893,61.535 61.536,70.893 50,70.893 38.459,70.893 29.112,61.536 29.112,50 29.112,38.461 38.459,29.112 50,29.112 61.535,29.112 70.893,38.461 70.893,50 Z M 50,12 c 2.442,0 4.878,0.234 7.265,0.698 l -2.423,9.681 C 53.246,22.101 51.624,21.96 50,21.96 c -1.624,0 -3.246,0.141 -4.842,0.42 L 42.735,12.699 C 45.125,12.234 47.56,12 50,12 Z m -12.358,2.067 2.742,9.593 C 37.342,24.772 34.495,26.417 32,28.506 l -6.931,-7.17 c 3.681,-3.203 7.968,-5.682 12.573,-7.269 z m -16.306,11.001 7.17,6.931 c -2.088,2.495 -3.733,5.342 -4.846,8.384 l -9.592,-2.742 c 1.586,-4.604 4.065,-8.891 7.268,-12.573 z M 12,50 c 0,-2.44 0.234,-4.875 0.699,-7.265 l 9.681,2.422 c -0.279,1.598 -0.42,3.22 -0.42,4.843 0,1.623 0.141,3.244 0.42,4.842 l -9.681,2.423 C 12.234,54.878 12,52.442 12,50 Z m 2.067,12.356 9.592,-2.745 c 1.112,3.046 2.758,5.894 4.846,8.386 l -7.169,6.936 C 18.134,71.253 15.655,66.964 14.067,62.356 Z M 37.643,85.934 C 33.04,84.346 28.753,81.867 25.068,78.663 l 6.93,-7.173 c 2.496,2.092 5.343,3.739 8.386,4.853 z M 50,88 c -2.428,0 -4.863,-0.235 -7.265,-0.702 l 2.422,-9.676 c 1.609,0.282 3.231,0.424 4.842,0.424 1.611,0 3.232,-0.142 4.842,-0.424 l 2.422,9.676 C 54.865,87.765 52.431,88 50,88 Z m 12.355,-2.066 -2.744,-9.59 c 3.046,-1.113 5.894,-2.761 8.387,-4.853 l 6.934,7.172 c -3.684,3.202 -7.972,5.682 -12.577,7.271 z M 78.663,74.932 71.491,67.998 c 2.092,-2.493 3.739,-5.341 4.853,-8.387 l 9.59,2.744 c -1.589,4.605 -4.069,8.893 -7.271,12.577 z m -1.041,-20.09 c 0.282,-1.609 0.424,-3.23 0.424,-4.842 0,-1.612 -0.142,-3.233 -0.424,-4.842 l 9.676,-2.422 C 87.765,45.137 88,47.572 88,50 c 0,2.431 -0.235,4.865 -0.702,7.264 z"
         inkscape:connector-curvature="0"
         style="fill:#ffffff;fill-opacity:1;stroke:#ffffff;stroke-opacity:1" />
    </g>
    <g
       aria-label="Check it out!"
       style="font-style:normal;font-variant:normal;font-weight:normal;font-stretch:normal;font-size:17.63888741px;line-height:1.25;font-family:Orbitron;-inkscape-font-specification:Orbitron;letter-spacing:0px;word-spacing:0px;fill:#000000;fill-opacity:1;stroke:none;stroke-width:0.26458332"
       id="text1045">
      <path
         d="m 150.05152,370.80238 h -10.37167 q -0.15875,0 -0.28222,0.12347 -0.10583,0.10584 -0.10583,0.26459 v 8.11389 q 0,0.15875 0.10583,0.28222 0.12347,0.10583 0.28222,0.10583 h 10.37167 v 1.905 h -10.37167 q -0.9525,0 -1.62278,-0.67028 -0.67027,-0.67027 -0.67027,-1.62277 v -8.11389 q 0,-0.9525 0.67027,-1.62278 0.67028,-0.67028 1.62278,-0.67028 h 10.37167 z"
         style="font-size:17.63888931px;letter-spacing:0.79374999px;fill:#ffffff;fill-opacity:1;stroke-width:0.26458332"
         id="path955" />
      <path
         d="m 160.76301,371.36683 q 0.93486,0 1.60514,0.67027 0.68791,0.67028 0.68791,1.62278 v 7.9375 h -1.905 v -7.9375 q 0,-0.15875 -0.12347,-0.26458 -0.10583,-0.12347 -0.26458,-0.12347 h -5.82084 q -0.15875,0 -0.28222,0.12347 -0.10583,0.10583 -0.10583,0.26458 v 7.9375 h -1.905 v -13.58194 h 1.905 v 3.35139 z"
         style="font-size:17.63888931px;letter-spacing:0.79374999px;fill:#ffffff;fill-opacity:1;stroke-width:0.26458332"
         id="path957" />
      <path
         d="m 173.28607,371.36683 q 0.9525,0 1.62278,0.67027 0.67027,0.67028 0.67027,1.62278 v 3.77472 h -8.50194 v 1.86973 q 0,0.15875 0.10583,0.28222 0.12348,0.10583 0.28223,0.10583 h 8.11388 v 1.905 h -8.11388 q -0.9525,0 -1.62278,-0.67028 -0.67028,-0.67027 -0.67028,-1.62277 v -5.64445 q 0,-0.9525 0.67028,-1.62278 0.67028,-0.67027 1.62278,-0.67027 z m -6.20889,4.16277 h 6.59694 v -1.86972 q 0,-0.15875 -0.12347,-0.26458 -0.10583,-0.12347 -0.26458,-0.12347 h -5.82083 q -0.15875,0 -0.28223,0.12347 -0.10583,0.10583 -0.10583,0.26458 z"
         style="font-size:17.63888931px;letter-spacing:0.79374999px;fill:#ffffff;fill-opacity:1;stroke-width:0.26458332"
         id="path959" />
      <path
         d="m 180.28237,379.69238 h 8.11389 v 1.905 h -8.11389 q -0.9525,0 -1.62278,-0.67028 -0.67028,-0.67027 -0.67028,-1.62277 v -5.64445 q 0,-0.9525 0.67028,-1.62278 0.67028,-0.67027 1.62278,-0.67027 h 8.07861 v 1.905 h -8.07861 q -0.15875,0 -0.28222,0.12347 -0.10584,0.10583 -0.10584,0.26458 v 5.64445 q 0,0.15875 0.10584,0.28222 0.12347,0.10583 0.28222,0.10583 z"
         style="font-size:17.63888931px;letter-spacing:0.79374999px;fill:#ffffff;fill-opacity:1;stroke-width:0.26458332"
         id="path961" />
      <path
         d="m 198.8506,371.36683 h 2.25778 v 0.26458 l -4.39208,4.85069 4.39208,4.8507 v 0.26458 h -2.25778 l -3.82763,-4.16278 h -2.29306 v 4.16278 h -1.905 v -13.58194 h 1.905 v 7.51416 h 2.29306 z"
         style="font-size:17.63888931px;letter-spacing:0.79374999px;fill:#ffffff;fill-opacity:1;stroke-width:0.26458332"
         id="path963" />
      <path
         d="m 208.87914,381.59738 v -10.23055 h 1.905 v 10.23055 z m 0,-13.58194 h 1.905 v 1.905 h -1.905 z"
         style="font-size:17.63888931px;letter-spacing:0.79374999px;fill:#ffffff;fill-opacity:1;stroke-width:0.26458332"
         id="path965" />
      <path
         d="m 219.47984,373.27183 h -4.19805 v 6.0325 q 0,0.15875 0.10583,0.28222 0.12347,0.10583 0.28222,0.10583 h 3.81 v 1.905 h -3.81 q -0.9525,0 -1.62278,-0.67028 -0.67027,-0.67027 -0.67027,-1.62277 v -5.64445 -5.64444 h 1.905 v 3.35139 h 4.19805 z"
         style="font-size:17.63888931px;letter-spacing:0.79374999px;fill:#ffffff;fill-opacity:1;stroke-width:0.26458332"
         id="path967" />
      <path
         d="m 229.5555,371.36683 h 5.82083 q 0.9525,0 1.62278,0.67027 0.67028,0.67028 0.67028,1.62278 v 5.64445 q 0,0.9525 -0.67028,1.62277 -0.67028,0.67028 -1.62278,0.67028 h -5.82083 q -0.9525,0 -1.62278,-0.67028 -0.67028,-0.67027 -0.67028,-1.62277 v -5.64445 q 0,-0.9525 0.67028,-1.62278 0.67028,-0.67027 1.62278,-0.67027 z m 5.82083,1.905 h -5.82083 q -0.15875,0 -0.28222,0.12347 -0.10583,0.10583 -0.10583,0.26458 v 5.64445 q 0,0.15875 0.10583,0.28222 0.12347,0.10583 0.28222,0.10583 h 5.82083 q 0.15875,0 0.26459,-0.10583 0.12347,-0.12347 0.12347,-0.28222 v -5.64445 q 0,-0.15875 -0.12347,-0.26458 -0.10584,-0.12347 -0.26459,-0.12347 z"
         style="font-size:17.63888931px;letter-spacing:0.79374999px;fill:#ffffff;fill-opacity:1;stroke-width:0.26458332"
         id="path969" />
      <path
         d="m 248.51345,371.36683 h 1.905 v 7.9375 q 0,0.9525 -0.67028,1.62277 -0.67027,0.67028 -1.62277,0.67028 h -5.82084 q -0.9525,0 -1.62278,-0.67028 -0.67027,-0.67027 -0.67027,-1.62277 v -7.9375 h 1.905 v 7.9375 q 0,0.15875 0.10583,0.28222 0.12347,0.10583 0.28222,0.10583 h 5.82084 q 0.15875,0 0.26458,-0.10583 0.12347,-0.12347 0.12347,-0.28222 z"
         style="font-size:17.63888931px;letter-spacing:0.79374999px;fill:#ffffff;fill-opacity:1;stroke-width:0.26458332"
         id="path971" />
      <path
         d="m 258.89725,373.27183 h -4.19806 v 6.0325 q 0,0.15875 0.10583,0.28222 0.12348,0.10583 0.28223,0.10583 h 3.81 v 1.905 h -3.81 q -0.9525,0 -1.62278,-0.67028 -0.67028,-0.67027 -0.67028,-1.62277 v -5.64445 -5.64444 h 1.905 v 3.35139 h 4.19806 z"
         style="font-size:17.63888931px;letter-spacing:0.79374999px;fill:#ffffff;fill-opacity:1;stroke-width:0.26458332"
         id="path973" />
      <path
         d="m 262.81583,381.59738 h -1.905 v -1.905 h 1.905 z m -1.905,-3.52778 v -9.17222 h 1.905 v 9.17222 z"
         style="font-size:17.63888931px;letter-spacing:0.79374999px;fill:#ffffff;fill-opacity:1;stroke-width:0.26458332"
         id="path975" />
    </g>
    <text
       xml:space="preserve"
       style="font-style:normal;font-variant:normal;font-weight:normal;font-stretch:normal;font-size:17.63888741px;line-height:1.25;font-family:'PT Sans';-inkscape-font-specification:'PT Sans';letter-spacing:0px;word-spacing:0px;fill:#000000;fill-opacity:1;stroke:none;stroke-width:0.26458332"
       x="92.380447"
       y="15.170543"
       id="text1049"><tspan
         sodipodi:role="line"
         id="tspan1047"
         x="92.380447"
         y="30.957348"
         style="stroke-width:0.26458332" /></text>
    <flowRoot
       xml:space="preserve"
       id="flowRoot1051"
       style="font-style:normal;font-variant:normal;font-weight:normal;font-stretch:normal;font-size:66.66666412px;line-height:1.25;font-family:'PT Sans';-inkscape-font-specification:'PT Sans';letter-spacing:0px;word-spacing:0px;fill:#000000;fill-opacity:1;stroke:none"><flowRegion
         id="flowRegion1053"><rect
           id="rect1055"
           width="613.84021"
           height="116.30656"
           x="1285.8337"
           y="294.89624" /></flowRegion><flowPara
         id="flowPara1057" /></flowRoot>    <flowRoot
       xml:space="preserve"
       id="flowRoot1059"
       style="font-style:normal;font-variant:normal;font-weight:normal;font-stretch:normal;font-size:66.66666412px;line-height:1.25;font-family:'PT Sans';-inkscape-font-specification:'PT Sans';letter-spacing:0px;word-spacing:0px;fill:#000000;fill-opacity:1;stroke:none"><flowRegion
         id="flowRegion1061"><rect
           id="rect1063"
           width="723.6853"
           height="678.45496"
           x="1282.603"
           y="285.20404" /></flowRegion><flowPara
         id="flowPara1065" /></flowRoot>    <flowRoot
       xml:space="preserve"
       id="flowRoot1067"
       style="font-style:normal;font-variant:normal;font-weight:normal;font-stretch:normal;font-size:66.66666412px;line-height:1.25;font-family:'PT Sans';-inkscape-font-specification:'PT Sans';letter-spacing:0px;word-spacing:0px;fill:#000000;fill-opacity:1;stroke:none"><flowRegion
         id="flowRegion1069"><rect
           id="rect1071"
           width="841.57623"
           height="1378.7778"
           x="1161.4813"
           y="11.338583" /></flowRegion><flowPara
         id="flowPara1073" /></flowRoot>    <flowRoot
       xml:space="preserve"
       id="flowRoot1075"
       style="font-style:normal;font-variant:normal;font-weight:normal;font-stretch:normal;font-size:66.66666412px;line-height:1.25;font-family:'PT Sans';-inkscape-font-specification:'PT Sans';letter-spacing:0px;word-spacing:0px;fill:#000000;fill-opacity:1;stroke:none"
       transform="matrix(0.26458333,0,0,0.26458333,-248.68452,-60.289692)"><flowRegion
         id="flowRegion1077"><rect
           id="rect1079"
           width="827.06891"
           height="1385.9866"
           x="1217.9882"
           y="88.129013" /></flowRegion><flowPara
         id="flowPara1081"
         style="font-style:normal;font-variant:normal;font-weight:normal;font-stretch:normal;font-size:73.33333588px;font-family:monospace;-inkscape-font-specification:monospace;text-align:center;text-anchor:middle;fill:#ffffff;fill-opacity:1" /></flowRoot>    <flowRoot
       xml:space="preserve"
       id="flowRoot892"
       style="font-style:normal;font-weight:normal;font-size:40px;line-height:1.25;font-family:sans-serif;letter-spacing:0px;word-spacing:0px;fill:#000000;fill-opacity:1;stroke:none"><flowRegion
         id="flowRegion894"><rect
           id="rect896"
           width="888.45288"
           height="245.53607"
           x="1082.2971"
           y="1331.9631" /></flowRegion><flowPara
         id="flowPara898" /></flowRoot>    <g
       aria-label="Hackadrone 2018 was India's first UAV Hackathon conducted by Cyient, Microsoft and the Government of Telangana. I developed an autonomous women security drone network which when summoned through an app, live streams the victim to the police and victim's family. My implementation of this project bagged the first prize."
       transform="matrix(0.26458333,0,0,0.26458333,40.394375,-77.025451)"
       style="font-style:normal;font-weight:normal;font-size:40px;line-height:1.25;font-family:sans-serif;letter-spacing:0px;word-spacing:0px;fill:#000000;fill-opacity:1;stroke:none"
       id="flowRoot1036">
      <g
         aria-label="A unified system of assistance for the visually challenged. This project was a consolidation of various features like object detection, face recognition, image to text, geofence and building a volunteer community for the blind."
         transform="translate(32.000019,52.768866)"
         style="font-style:normal;font-variant:normal;font-weight:normal;font-stretch:normal;font-size:80px;line-height:1.25;font-family:'PT Sans';-inkscape-font-specification:'PT Sans, Normal';font-variant-ligatures:normal;font-variant-caps:normal;font-variant-numeric:normal;font-feature-settings:normal;text-align:start;letter-spacing:0px;word-spacing:0px;writing-mode:lr-tb;text-anchor:start;fill:#000000;fill-opacity:1;stroke:none"
         id="flowRoot1111">
        <g
           aria-label="stagger.in is an  e-commerce site for customized handmade gifts and products from artists, home sellers and small businesses."
           transform="translate(-2.7696701,18.153689)"
           style="font-style:normal;font-variant:normal;font-weight:normal;font-stretch:normal;font-size:80px;line-height:1.25;font-family:'PT Sans';-inkscape-font-specification:'PT Sans, Normal';font-variant-ligatures:normal;font-variant-caps:normal;font-variant-numeric:normal;font-feature-settings:normal;text-align:start;letter-spacing:0px;word-spacing:0px;writing-mode:lr-tb;text-anchor:start;fill:#ffffff;fill-opacity:1;stroke:none"
           id="flowRoot1037">
          <path
             d="m 284.03734,137.51102 q 0,-2.4 -1.44,-3.76 -1.44,-1.36 -3.6,-2.24 -2.08,-0.96 -4.64,-1.76 -2.48,-0.88 -4.64,-2.16 -2.08,-1.36 -3.52,-3.44 -1.44,-2.08 -1.44,-5.6 0,-5.76 3.28,-8.4 3.28,-2.72 9.12,-2.72 4.32,0 7.2,0.8 2.96,0.72 5.12,1.76 l -1.52,5.28 q -1.84,-0.88 -4.48,-1.52 -2.56,-0.72 -5.52,-0.72 -3.52,0 -5.2,1.2 -1.6,1.2 -1.6,4.16 0,2.08 1.44,3.28 1.44,1.12 3.52,2.08 2.16,0.88 4.64,1.76 2.56,0.88 4.64,2.32 2.16,1.44 3.6,3.68 1.44,2.16 1.44,5.76 0,2.56 -0.88,4.8 -0.8,2.24 -2.56,3.84 -1.76,1.6 -4.4,2.48 -2.56,0.96 -6.08,0.96 -4.56,0 -7.76,-0.88 -3.2,-0.88 -5.36,-2.08 l 1.92,-5.44 q 1.84,1.04 4.8,1.92 2.96,0.88 6,0.88 3.44,0 5.68,-1.36 2.24,-1.36 2.24,-4.88 z"
             style="text-align:center;text-anchor:middle;fill:#ffffff;fill-opacity:1"
             id="path1057" />
          <path
             d="m 294.90734,108.39102 h 6.24 v -7.92 l 6.4,-1.840004 v 9.760004 h 10.88 v 5.6 h -10.88 v 22.16 q 0,4.16 1.04,5.92 1.04,1.68 3.52,1.68 2.08,0 3.52,-0.4 1.44,-0.48 3.2,-1.2 l 1.44,4.88 q -2.16,1.04 -4.72,1.68 -2.56,0.64 -5.52,0.64 -4.88,0 -6.88,-2.72 -2,-2.8 -2,-9.28 v -23.36 h -6.24 z"
             style="text-align:center;text-anchor:middle;fill:#ffffff;fill-opacity:1"
             id="path1059" />
          <path
             d="m 326.73484,111.35102 q 3.04,-1.84 7.04,-2.72 4.08,-0.88 8.48,-0.88 4.16,0 6.64,1.12 2.56,1.12 3.84,2.96 1.36,1.76 1.76,3.92 0.48,2.16 0.48,4.32 0,4.8 -0.24,9.36 -0.24,4.56 -0.24,8.64 0,2.96 0.24,5.6 0.24,2.64 0.88,4.88 h -4.72 l -1.68,-5.6 h -0.4 q -0.72,1.12 -1.84,2.24 -1.04,1.04 -2.56,1.92 -1.52,0.8 -3.52,1.36 -2,0.56 -4.56,0.56 -2.56,0 -4.8,-0.8 -2.16,-0.8 -3.76,-2.24 -1.6,-1.52 -2.56,-3.6 -0.88,-2.08 -0.88,-4.72 0,-3.52 1.44,-5.84 1.44,-2.4 4,-3.76 2.64,-1.44 6.24,-2 3.68,-0.64 8.08,-0.64 1.12,0 2.16,0 1.12,0 2.24,0.16 0.24,-2.4 0.24,-4.32 0,-4.4 -1.76,-6.16 -1.76,-1.76 -6.4,-1.76 -1.36,0 -2.96,0.24 -1.52,0.16 -3.2,0.56 -1.6,0.32 -3.12,0.88 -1.44,0.48 -2.56,1.12 z m 11.36,32.08 q 2.24,0 4,-0.56 1.76,-0.64 3.04,-1.52 1.28,-0.96 2.08,-2.08 0.88,-1.12 1.28,-2.16 v -6.64 q -1.12,-0.08 -2.32,-0.08 -1.12,-0.08 -2.24,-0.08 -2.48,0 -4.88,0.32 -2.32,0.24 -4.16,1.04 -1.76,0.72 -2.88,2.08 -1.04,1.28 -1.04,3.28 0,2.8 2,4.64 2,1.76 5.12,1.76 z"
             style="text-align:center;text-anchor:middle;fill:#ffffff;fill-opacity:1"
             id="path1061" />
          <path
             d="m 397.70234,150.23102 q 0,7.76 -4.16,11.44 -4.08,3.68 -12.16,3.68 -4.8,0 -7.76,-0.64 -2.88,-0.56 -4.96,-1.52 l 1.68,-5.44 q 1.84,0.72 4.08,1.36 2.24,0.64 5.84,0.64 3.36,0 5.44,-0.64 2.16,-0.56 3.44,-2 1.28,-1.36 1.76,-3.6 0.48,-2.16 0.48,-5.2 v -3.84 h -0.32 q -1.6,2.32 -4.08,3.6 -2.48,1.2 -6.48,1.2 -8.08,0 -11.92,-5.04 -3.76,-5.04 -3.76,-15.68 0,-10.24 4.88,-15.52 4.88,-5.36 14.4,-5.36 4.56,0 7.76,0.72 3.28,0.72 5.84,1.68 z m -16.08,-6.56 q 4.08,0 6.4,-2 2.32,-2.08 3.28,-6.4 v -20.48 q -3.2,-1.52 -8.16,-1.52 -5.44,0 -8.56,3.68 -3.12,3.68 -3.12,11.52 0,3.36 0.56,6.16 0.56,2.8 1.76,4.8 1.2,2 3.12,3.12 1.92,1.12 4.72,1.12 z"
             style="text-align:center;text-anchor:middle;fill:#ffffff;fill-opacity:1"
             id="path1063" />
          <path
             d="m 440.67109,150.23102 q 0,7.76 -4.16,11.44 -4.08,3.68 -12.16,3.68 -4.8,0 -7.76,-0.64 -2.88,-0.56 -4.96,-1.52 l 1.68,-5.44 q 1.84,0.72 4.08,1.36 2.24,0.64 5.84,0.64 3.36,0 5.44,-0.64 2.16,-0.56 3.44,-2 1.28,-1.36 1.76,-3.6 0.48,-2.16 0.48,-5.2 v -3.84 h -0.32 q -1.6,2.32 -4.08,3.6 -2.48,1.2 -6.48,1.2 -8.08,0 -11.92,-5.04 -3.76,-5.04 -3.76,-15.68 0,-10.24 4.88,-15.52 4.88,-5.36 14.4,-5.36 4.56,0 7.76,0.72 3.28,0.72 5.84,1.68 z m -16.08,-6.56 q 4.08,0 6.4,-2 2.32,-2.08 3.28,-6.4 v -20.48 q -3.2,-1.52 -8.16,-1.52 -5.44,0 -8.56,3.68 -3.12,3.68 -3.12,11.52 0,3.36 0.56,6.16 0.56,2.8 1.76,4.8 1.2,2 3.12,3.12 1.92,1.12 4.72,1.12 z"
             style="text-align:center;text-anchor:middle;fill:#ffffff;fill-opacity:1"
             id="path1065" />
          <path
             d="m 482.19984,145.19102 q -2.4,1.92 -6.08,3.04 -3.6,1.12 -7.68,1.12 -4.56,0 -7.92,-1.44 -3.36,-1.52 -5.52,-4.24 -2.16,-2.8 -3.2,-6.64 -1.04,-3.84 -1.04,-8.64 0,-10.24 4.56,-15.6 4.56,-5.36 13.04,-5.36 2.72,0 5.44,0.64 2.72,0.56 4.88,2.24 2.16,1.68 3.52,4.8 1.36,3.04 1.36,8.08 0,2.64 -0.48,5.84 h -25.68 q 0,3.52 0.72,6.24 0.72,2.72 2.24,4.64 1.52,1.84 3.92,2.88 2.48,0.96 6,0.96 2.72,0 5.44,-0.96 2.72,-0.96 4.08,-2.24 z m -13.76,-32.16 q -4.72,0 -7.6,2.48 -2.8,2.48 -3.36,8.48 h 19.84 q 0,-6.08 -2.32,-8.48 -2.32,-2.48 -6.56,-2.48 z"
             style="text-align:center;text-anchor:middle;fill:#ffffff;fill-opacity:1"
             id="path1067" />
          <path
             d="m 512.50484,114.55102 q -2.4,-0.8 -4.56,-0.8 -3.44,0 -5.44,1.92 -2,1.84 -2.48,4.72 v 28 h -6.4 v -40 h 4.48 l 1.2,4.88 h 0.32 q 1.52,-2.72 3.6,-4.16 2.16,-1.52 5.44,-1.52 2.32,0 5.2,0.8 z"
             style="text-align:center;text-anchor:middle;fill:#ffffff;fill-opacity:1"
             id="path1069" />
          <path
             d="m 513.72859,144.71102 q 0,-2.16 1.2,-3.36 1.28,-1.28 3.36,-1.28 2.16,0 3.44,1.28 1.28,1.2 1.28,3.36 0,2.08 -1.28,3.36 -1.28,1.28 -3.44,1.28 -2.08,0 -3.36,-1.28 -1.2,-1.28 -1.2,-3.36 z"
             style="text-align:center;text-anchor:middle;fill:#ffffff;fill-opacity:1"
             id="path1071" />
          <path
             d="m 534.51609,108.39102 h 6.4 v 40 h -6.4 z m -1.36,-12.160004 q 0,-1.84 1.2,-3.12 1.28,-1.36 3.2,-1.36 1.92,0 3.28,1.36 1.36,1.28 1.36,3.12 0,1.84 -1.36,3.04 -1.36,1.200004 -3.28,1.200004 -1.92,0 -3.2,-1.200004 -1.2,-1.2 -1.2,-3.04 z"
             style="text-align:center;text-anchor:middle;fill:#ffffff;fill-opacity:1"
             id="path1073" />
          <path
             d="m 580.24234,148.39102 v -22.8 q 0,-6.24 -1.84,-9.36 -1.76,-3.2 -6.56,-3.2 -4.24,0 -7.04,2.32 -2.72,2.24 -3.84,5.68 v 27.36 h -6.4 v -40 h 4.48 l 1.2,4.88 h 0.32 q 1.92,-2.56 5.12,-4.16 3.28,-1.68 7.76,-1.68 3.28,0 5.76,0.8 2.48,0.72 4.08,2.64 1.68,1.92 2.48,5.2 0.88,3.2 0.88,8.16 v 24.16 z"
             style="text-align:center;text-anchor:middle;fill:#ffffff;fill-opacity:1"
             id="path1075" />
          <path
             d="m 621.07859,108.39102 h 6.4 v 40 h -6.4 z m -1.36,-12.160004 q 0,-1.84 1.2,-3.12 1.28,-1.36 3.2,-1.36 1.92,0 3.28,1.36 1.36,1.28 1.36,3.12 0,1.84 -1.36,3.04 -1.36,1.200004 -3.28,1.200004 -1.92,0 -3.2,-1.200004 -1.2,-1.2 -1.2,-3.04 z"
             style="text-align:center;text-anchor:middle;fill:#ffffff;fill-opacity:1"
             id="path1077" />
          <path
             d="m 658.72484,137.51102 q 0,-2.4 -1.44,-3.76 -1.44,-1.36 -3.6,-2.24 -2.08,-0.96 -4.64,-1.76 -2.48,-0.88 -4.64,-2.16 -2.08,-1.36 -3.52,-3.44 -1.44,-2.08 -1.44,-5.6 0,-5.76 3.28,-8.4 3.28,-2.72 9.12,-2.72 4.32,0 7.2,0.8 2.96,0.72 5.12,1.76 l -1.52,5.28 q -1.84,-0.88 -4.48,-1.52 -2.56,-0.72 -5.52,-0.72 -3.52,0 -5.2,1.2 -1.6,1.2 -1.6,4.16 0,2.08 1.44,3.28 1.44,1.12 3.52,2.08 2.16,0.88 4.64,1.76 2.56,0.88 4.64,2.32 2.16,1.44 3.6,3.68 1.44,2.16 1.44,5.76 0,2.56 -0.88,4.8 -0.8,2.24 -2.56,3.84 -1.76,1.6 -4.4,2.48 -2.56,0.96 -6.08,0.96 -4.56,0 -7.76,-0.88 -3.2,-0.88 -5.36,-2.08 l 1.92,-5.44 q 1.84,1.04 4.8,1.92 2.96,0.88 6,0.88 3.44,0 5.68,-1.36 2.24,-1.36 2.24,-4.88 z"
             style="text-align:center;text-anchor:middle;fill:#ffffff;fill-opacity:1"
             id="path1079" />
          <path
             d="m 695.64109,111.35102 q 3.04,-1.84 7.04,-2.72 4.08,-0.88 8.48,-0.88 4.16,0 6.64,1.12 2.56,1.12 3.84,2.96 1.36,1.76 1.76,3.92 0.48,2.16 0.48,4.32 0,4.8 -0.24,9.36 -0.24,4.56 -0.24,8.64 0,2.96 0.24,5.6 0.24,2.64 0.88,4.88 h -4.72 l -1.68,-5.6 h -0.4 q -0.72,1.12 -1.84,2.24 -1.04,1.04 -2.56,1.92 -1.52,0.8 -3.52,1.36 -2,0.56 -4.56,0.56 -2.56,0 -4.8,-0.8 -2.16,-0.8 -3.76,-2.24 -1.6,-1.52 -2.56,-3.6 -0.88,-2.08 -0.88,-4.72 0,-3.52 1.44,-5.84 1.44,-2.4 4,-3.76 2.64,-1.44 6.24,-2 3.68,-0.64 8.08,-0.64 1.12,0 2.16,0 1.12,0 2.24,0.16 0.24,-2.4 0.24,-4.32 0,-4.4 -1.76,-6.16 -1.76,-1.76 -6.4,-1.76 -1.36,0 -2.96,0.24 -1.52,0.16 -3.2,0.56 -1.6,0.32 -3.12,0.88 -1.44,0.48 -2.56,1.12 z m 11.36,32.08 q 2.24,0 4,-0.56 1.76,-0.64 3.04,-1.52 1.28,-0.96 2.08,-2.08 0.88,-1.12 1.28,-2.16 v -6.64 q -1.12,-0.08 -2.32,-0.08 -1.12,-0.08 -2.24,-0.08 -2.48,0 -4.88,0.32 -2.32,0.24 -4.16,1.04 -1.76,0.72 -2.88,2.08 -1.04,1.28 -1.04,3.28 0,2.8 2,4.64 2,1.76 5.12,1.76 z"
             style="text-align:center;text-anchor:middle;fill:#ffffff;fill-opacity:1"
             id="path1081" />
          <path
             d="m 761.64859,148.39102 v -22.8 q 0,-6.24 -1.84,-9.36 -1.76,-3.2 -6.56,-3.2 -4.24,0 -7.04,2.32 -2.72,2.24 -3.84,5.68 v 27.36 h -6.4 v -40 h 4.48 l 1.2,4.88 h 0.32 q 1.92,-2.56 5.12,-4.16 3.28,-1.68 7.76,-1.68 3.28,0 5.76,0.8 2.48,0.72 4.08,2.64 1.68,1.92 2.48,5.2 0.88,3.2 0.88,8.16 v 24.16 z"
             style="text-align:center;text-anchor:middle;fill:#ffffff;fill-opacity:1"
             id="path1083" />
          <path
             d="m 213.05922,245.19102 q -2.4,1.92 -6.08,3.04 -3.6,1.12 -7.68,1.12 -4.56,0 -7.92,-1.44 -3.36,-1.52 -5.52,-4.24 -2.16,-2.8 -3.2,-6.64 -1.04,-3.84 -1.04,-8.64 0,-10.24 4.56,-15.6 4.56,-5.36 13.04,-5.36 2.72,0 5.44,0.64 2.72,0.56 4.88,2.24 2.16,1.68 3.52,4.8 1.36,3.04 1.36,8.08 0,2.64 -0.48,5.84 h -25.68 q 0,3.52 0.72,6.24 0.72,2.72 2.24,4.64 1.52,1.84 3.92,2.88 2.48,0.96 6,0.96 2.72,0 5.44,-0.96 2.72,-0.96 4.08,-2.24 z m -13.76,-32.16 q -4.72,0 -7.6,2.48 -2.8,2.48 -3.36,8.48 h 19.84 q 0,-6.08 -2.32,-8.48 -2.32,-2.48 -6.56,-2.48 z"
             style="text-align:center;text-anchor:middle;fill:#ffffff;fill-opacity:1"
             id="path1085" />
          <path
             d="m 223.04422,222.39102 h 19.36 v 5.92 h -19.36 z"
             style="text-align:center;text-anchor:middle;fill:#ffffff;fill-opacity:1"
             id="path1087" />
          <path
             d="m 280.51422,245.75102 q -2.4,1.76 -5.68,2.64 -3.28,0.96 -6.88,0.96 -4.64,0 -7.84,-1.44 -3.2,-1.52 -5.28,-4.24 -2,-2.8 -2.96,-6.64 -0.88,-3.92 -0.88,-8.64 0,-10.16 4.48,-15.52 4.48,-5.44 12.88,-5.44 3.84,0 6.48,0.64 2.72,0.56 4.88,1.68 l -1.84,5.52 q -1.84,-1.04 -4.08,-1.6 -2.24,-0.64 -4.8,-0.64 -11.36,0 -11.36,15.36 0,3.04 0.56,5.84 0.64,2.72 2,4.88 1.44,2.08 3.68,3.36 2.32,1.28 5.68,1.28 2.88,0 5.12,-0.88 2.32,-0.88 3.76,-2 z"
             style="text-align:center;text-anchor:middle;fill:#ffffff;fill-opacity:1"
             id="path1089" />
          <path
             d="m 285.21297,228.39102 q 0,-10.16 4.48,-15.52 4.56,-5.44 13.04,-5.44 4.48,0 7.76,1.52 3.36,1.44 5.52,4.24 2.16,2.72 3.2,6.64 1.04,3.84 1.04,8.56 0,10.16 -4.56,15.6 -4.48,5.36 -12.96,5.36 -4.48,0 -7.84,-1.44 -3.28,-1.52 -5.44,-4.24 -2.16,-2.8 -3.2,-6.64 -1.04,-3.92 -1.04,-8.64 z m 6.64,0 q 0,3.04 0.56,5.84 0.64,2.8 1.92,4.88 1.28,2.08 3.36,3.36 2.08,1.28 5.04,1.28 10.88,0.08 10.88,-15.36 0,-3.12 -0.64,-5.92 -0.56,-2.8 -1.84,-4.88 -1.28,-2.08 -3.36,-3.28 -2.08,-1.28 -5.04,-1.28 -10.88,-0.08 -10.88,15.36 z"
             style="text-align:center;text-anchor:middle;fill:#ffffff;fill-opacity:1"
             id="path1091" />
          <path
             d="m 353.70547,248.39102 v -22.64 q 0,-3.2 -0.32,-5.52 -0.24,-2.4 -1.04,-4 -0.8,-1.6 -2.32,-2.4 -1.44,-0.8 -3.84,-0.8 -3.68,0 -6.16,2.24 -2.4,2.24 -3.36,5.6 v 27.52 h -6.4 v -40 h 4.48 l 1.2,4.88 h 0.32 q 2.16,-2.56 4.96,-4.16 2.88,-1.68 7.44,-1.68 3.84,0 6.24,1.52 2.48,1.44 3.84,5.12 1.84,-3.12 5.04,-4.88 3.28,-1.76 7.36,-1.76 3.36,0 5.68,0.8 2.32,0.72 3.84,2.64 1.52,1.92 2.16,5.2 0.72,3.28 0.72,8.32 v 24 h -6.4 v -24.08 q 0,-2.88 -0.32,-4.96 -0.24,-2.16 -1.12,-3.52 -0.8,-1.44 -2.32,-2.08 -1.44,-0.72 -3.84,-0.72 -4,0 -6.24,2.24 -2.24,2.24 -3.2,6.4 v 26.72 z"
             style="text-align:center;text-anchor:middle;fill:#ffffff;fill-opacity:1"
             id="path1093" />
          <path
             d="m 418.70547,248.39102 v -22.64 q 0,-3.2 -0.32,-5.52 -0.24,-2.4 -1.04,-4 -0.8,-1.6 -2.32,-2.4 -1.44,-0.8 -3.84,-0.8 -3.68,0 -6.16,2.24 -2.4,2.24 -3.36,5.6 v 27.52 h -6.4 v -40 h 4.48 l 1.2,4.88 h 0.32 q 2.16,-2.56 4.96,-4.16 2.88,-1.68 7.44,-1.68 3.84,0 6.24,1.52 2.48,1.44 3.84,5.12 1.84,-3.12 5.04,-4.88 3.28,-1.76 7.36,-1.76 3.36,0 5.68,0.8 2.32,0.72 3.84,2.64 1.52,1.92 2.16,5.2 0.72,3.28 0.72,8.32 v 24 h -6.4 v -24.08 q 0,-2.88 -0.32,-4.96 -0.24,-2.16 -1.12,-3.52 -0.8,-1.44 -2.32,-2.08 -1.44,-0.72 -3.84,-0.72 -4,0 -6.24,2.24 -2.24,2.24 -3.2,6.4 v 26.72 z"
             style="text-align:center;text-anchor:middle;fill:#ffffff;fill-opacity:1"
             id="path1095" />
          <path
             d="m 489.46547,245.19102 q -2.4,1.92 -6.08,3.04 -3.6,1.12 -7.68,1.12 -4.56,0 -7.92,-1.44 -3.36,-1.52 -5.52,-4.24 -2.16,-2.8 -3.2,-6.64 -1.04,-3.84 -1.04,-8.64 0,-10.24 4.56,-15.6 4.56,-5.36 13.04,-5.36 2.72,0 5.44,0.64 2.72,0.56 4.88,2.24 2.16,1.68 3.52,4.8 1.36,3.04 1.36,8.08 0,2.64 -0.48,5.84 h -25.68 q 0,3.52 0.72,6.24 0.72,2.72 2.24,4.64 1.52,1.84 3.92,2.88 2.48,0.96 6,0.96 2.72,0 5.44,-0.96 2.72,-0.96 4.08,-2.24 z m -13.76,-32.16 q -4.72,0 -7.6,2.48 -2.8,2.48 -3.36,8.48 h 19.84 q 0,-6.08 -2.32,-8.48 -2.32,-2.48 -6.56,-2.48 z"
             style="text-align:center;text-anchor:middle;fill:#ffffff;fill-opacity:1"
             id="path1097" />
          <path
             d="m 519.77047,214.55102 q -2.4,-0.8 -4.56,-0.8 -3.44,0 -5.44,1.92 -2,1.84 -2.48,4.72 v 28 h -6.4 v -40 h 4.48 l 1.2,4.88 h 0.32 q 1.52,-2.72 3.6,-4.16 2.16,-1.52 5.44,-1.52 2.32,0 5.2,0.8 z"
             style="text-align:center;text-anchor:middle;fill:#ffffff;fill-opacity:1"
             id="path1099" />
          <path
             d="m 555.35797,245.75102 q -2.4,1.76 -5.68,2.64 -3.28,0.96 -6.88,0.96 -4.64,0 -7.84,-1.44 -3.2,-1.52 -5.28,-4.24 -2,-2.8 -2.96,-6.64 -0.88,-3.92 -0.88,-8.64 0,-10.16 4.48,-15.52 4.48,-5.44 12.88,-5.44 3.84,0 6.48,0.64 2.72,0.56 4.88,1.68 l -1.84,5.52 q -1.84,-1.04 -4.08,-1.6 -2.24,-0.64 -4.8,-0.64 -11.36,0 -11.36,15.36 0,3.04 0.56,5.84 0.64,2.72 2,4.88 1.44,2.08 3.68,3.36 2.32,1.28 5.68,1.28 2.88,0 5.12,-0.88 2.32,-0.88 3.76,-2 z"
             style="text-align:center;text-anchor:middle;fill:#ffffff;fill-opacity:1"
             id="path1101" />
          <path
             d="m 591.49672,245.19102 q -2.4,1.92 -6.08,3.04 -3.6,1.12 -7.68,1.12 -4.56,0 -7.92,-1.44 -3.36,-1.52 -5.52,-4.24 -2.16,-2.8 -3.2,-6.64 -1.04,-3.84 -1.04,-8.64 0,-10.24 4.56,-15.6 4.56,-5.36 13.04,-5.36 2.72,0 5.44,0.64 2.72,0.56 4.88,2.24 2.16,1.68 3.52,4.8 1.36,3.04 1.36,8.08 0,2.64 -0.48,5.84 h -25.68 q 0,3.52 0.72,6.24 0.72,2.72 2.24,4.64 1.52,1.84 3.92,2.88 2.48,0.96 6,0.96 2.72,0 5.44,-0.96 2.72,-0.96 4.08,-2.24 z m -13.76,-32.16 q -4.72,0 -7.6,2.48 -2.8,2.48 -3.36,8.48 h 19.84 q 0,-6.08 -2.32,-8.48 -2.32,-2.48 -6.56,-2.48 z"
             style="text-align:center;text-anchor:middle;fill:#ffffff;fill-opacity:1"
             id="path1103" />
          <path
             d="m 641.92797,237.51102 q 0,-2.4 -1.44,-3.76 -1.44,-1.36 -3.6,-2.24 -2.08,-0.96 -4.64,-1.76 -2.48,-0.88 -4.64,-2.16 -2.08,-1.36 -3.52,-3.44 -1.44,-2.08 -1.44,-5.6 0,-5.76 3.28,-8.4 3.28,-2.72 9.12,-2.72 4.32,0 7.2,0.8 2.96,0.72 5.12,1.76 l -1.52,5.28 q -1.84,-0.88 -4.48,-1.52 -2.56,-0.72 -5.52,-0.72 -3.52,0 -5.2,1.2 -1.6,1.2 -1.6,4.16 0,2.08 1.44,3.28 1.44,1.12 3.52,2.08 2.16,0.88 4.64,1.76 2.56,0.88 4.64,2.32 2.16,1.44 3.6,3.68 1.44,2.16 1.44,5.76 0,2.56 -0.88,4.8 -0.8,2.24 -2.56,3.84 -1.76,1.6 -4.4,2.48 -2.56,0.96 -6.08,0.96 -4.56,0 -7.76,-0.88 -3.2,-0.88 -5.36,-2.08 l 1.92,-5.44 q 1.84,1.04 4.8,1.92 2.96,0.88 6,0.88 3.44,0 5.68,-1.36 2.24,-1.36 2.24,-4.88 z"
             style="text-align:center;text-anchor:middle;fill:#ffffff;fill-opacity:1"
             id="path1105" />
          <path
             d="m 659.43797,208.39102 h 6.4 v 40 h -6.4 z m -1.36,-12.16 q 0,-1.84 1.2,-3.12 1.28,-1.36 3.2,-1.36 1.92,0 3.28,1.36 1.36,1.28 1.36,3.12 0,1.84 -1.36,3.04 -1.36,1.2 -3.28,1.2 -1.92,0 -3.2,-1.2 -1.2,-1.2 -1.2,-3.04 z"
             style="text-align:center;text-anchor:middle;fill:#ffffff;fill-opacity:1"
             id="path1107" />
          <path
             d="m 674.20422,208.39102 h 6.24 v -7.92 l 6.4,-1.84 v 9.76 h 10.88 v 5.6 h -10.88 v 22.16 q 0,4.16 1.04,5.92 1.04,1.68 3.52,1.68 2.08,0 3.52,-0.4 1.44,-0.48 3.2,-1.2 l 1.44,4.88 q -2.16,1.04 -4.72,1.68 -2.56,0.64 -5.52,0.64 -4.88,0 -6.88,-2.72 -2,-2.8 -2,-9.28 v -23.36 h -6.24 z"
             style="text-align:center;text-anchor:middle;fill:#ffffff;fill-opacity:1"
             id="path1109" />
          <path
             d="m 734.93422,245.19102 q -2.4,1.92 -6.08,3.04 -3.6,1.12 -7.68,1.12 -4.56,0 -7.92,-1.44 -3.36,-1.52 -5.52,-4.24 -2.16,-2.8 -3.2,-6.64 -1.04,-3.84 -1.04,-8.64 0,-10.24 4.56,-15.6 4.56,-5.36 13.04,-5.36 2.72,0 5.44,0.64 2.72,0.56 4.88,2.24 2.16,1.68 3.52,4.8 1.36,3.04 1.36,8.08 0,2.64 -0.48,5.84 h -25.68 q 0,3.52 0.72,6.24 0.72,2.72 2.24,4.64 1.52,1.84 3.92,2.88 2.48,0.96 6,0.96 2.72,0 5.44,-0.96 2.72,-0.96 4.08,-2.24 z m -13.76,-32.16 q -4.72,0 -7.6,2.48 -2.8,2.48 -3.36,8.48 h 19.84 q 0,-6.08 -2.32,-8.48 -2.32,-2.48 -6.56,-2.48 z"
             style="text-align:center;text-anchor:middle;fill:#ffffff;fill-opacity:1"
             id="path1111" />
          <path
             d="m 763.36547,208.39102 h 6.24 v -2.24 q 0,-3.68 0.56,-6.4 0.64,-2.72 2,-4.4 1.36,-1.76 3.52,-2.56 2.16,-0.88 5.36,-0.88 2.56,0 4.48,0.32 2,0.32 4.16,1.2 l -1.44,5.36 q -1.84,-0.8 -3.52,-1.04 -1.6,-0.24 -3.04,-0.24 -2.08,0 -3.28,0.64 -1.12,0.64 -1.68,1.92 -0.48,1.2 -0.64,3.04 -0.08,1.76 -0.08,4.16 v 1.12 h 10.64 v 5.6 h -10.64 v 34.4 h -6.4 v -34.4 h -6.24 z"
             style="text-align:center;text-anchor:middle;fill:#ffffff;fill-opacity:1"
             id="path1113" />
          <path
             d="m 790.05672,228.39102 q 0,-10.16 4.48,-15.52 4.56,-5.44 13.04,-5.44 4.48,0 7.76,1.52 3.36,1.44 5.52,4.24 2.16,2.72 3.2,6.64 1.04,3.84 1.04,8.56 0,10.16 -4.56,15.6 -4.48,5.36 -12.96,5.36 -4.48,0 -7.84,-1.44 -3.28,-1.52 -5.44,-4.24 -2.16,-2.8 -3.2,-6.64 -1.04,-3.92 -1.04,-8.64 z m 6.64,0 q 0,3.04 0.56,5.84 0.64,2.8 1.92,4.88 1.28,2.08 3.36,3.36 2.08,1.28 5.04,1.28 10.88,0.08 10.88,-15.36 0,-3.12 -0.64,-5.92 -0.56,-2.8 -1.84,-4.88 -1.28,-2.08 -3.36,-3.28 -2.08,-1.28 -5.04,-1.28 -10.88,-0.08 -10.88,15.36 z"
             style="text-align:center;text-anchor:middle;fill:#ffffff;fill-opacity:1"
             id="path1115" />
          <path
             d="m 853.98922,214.55102 q -2.4,-0.8 -4.56,-0.8 -3.44,0 -5.44,1.92 -2,1.84 -2.48,4.72 v 28 h -6.4 v -40 h 4.48 l 1.2,4.88 h 0.32 q 1.52,-2.72 3.6,-4.16 2.16,-1.52 5.44,-1.52 2.32,0 5.2,0.8 z"
             style="text-align:center;text-anchor:middle;fill:#ffffff;fill-opacity:1"
             id="path1117" />
          <path
             d="m 167.15484,345.75102 q -2.4,1.76 -5.68,2.64 -3.28,0.96 -6.88,0.96 -4.64,0 -7.84,-1.44 -3.2,-1.52 -5.28,-4.24 -2,-2.8 -2.96,-6.64 -0.88,-3.92 -0.88,-8.64 0,-10.16 4.48,-15.52 4.48,-5.44 12.88,-5.44 3.84,0 6.48,0.64 2.72,0.56 4.88,1.68 l -1.84,5.52 q -1.84,-1.04 -4.08,-1.6 -2.24,-0.64 -4.8,-0.64 -11.36,0 -11.36,15.36 0,3.04 0.56,5.84 0.64,2.72 2,4.88 1.44,2.08 3.68,3.36 2.32,1.28 5.68,1.28 2.88,0 5.12,-0.88 2.32,-0.88 3.76,-2 z"
             style="text-align:center;text-anchor:middle;fill:#ffffff;fill-opacity:1"
             id="path1119" />
          <path
             d="m 181.72859,308.39102 v 22.8 q 0,3.12 0.32,5.52 0.4,2.32 1.28,3.92 0.88,1.52 2.4,2.32 1.52,0.8 3.84,0.8 2.16,0 3.84,-0.64 1.68,-0.72 2.96,-1.92 1.36,-1.2 2.32,-2.72 1.04,-1.6 1.68,-3.36 v -26.72 h 6.4 v 28.64 q 0,2.88 0.16,6 0.24,3.04 0.72,5.36 h -4.4 l -1.6,-6.32 h -0.4 q -1.84,3.12 -4.96,5.2 -3.12,2.08 -7.92,2.08 -3.2,0 -5.68,-0.8 -2.4,-0.72 -4.08,-2.64 -1.6,-1.92 -2.48,-5.12 -0.8,-3.28 -0.8,-8.24 v -24.16 z"
             style="text-align:center;text-anchor:middle;fill:#ffffff;fill-opacity:1"
             id="path1121" />
          <path
             d="m 236.69359,337.51102 q 0,-2.4 -1.44,-3.76 -1.44,-1.36 -3.6,-2.24 -2.08,-0.96 -4.64,-1.76 -2.48,-0.88 -4.64,-2.16 -2.08,-1.36 -3.52,-3.44 -1.44,-2.08 -1.44,-5.6 0,-5.76 3.28,-8.4 3.28,-2.72 9.12,-2.72 4.32,0 7.2,0.8 2.96,0.72 5.12,1.76 l -1.52,5.28 q -1.84,-0.88 -4.48,-1.52 -2.56,-0.72 -5.52,-0.72 -3.52,0 -5.2,1.2 -1.6,1.2 -1.6,4.16 0,2.08 1.44,3.28 1.44,1.12 3.52,2.08 2.16,0.88 4.64,1.76 2.56,0.88 4.64,2.32 2.16,1.44 3.6,3.68 1.44,2.16 1.44,5.76 0,2.56 -0.88,4.8 -0.8,2.24 -2.56,3.84 -1.76,1.6 -4.4,2.48 -2.56,0.96 -6.08,0.96 -4.56,0 -7.76,-0.88 -3.2,-0.88 -5.36,-2.08 l 1.92,-5.44 q 1.84,1.04 4.8,1.92 2.96,0.88 6,0.88 3.44,0 5.68,-1.36 2.24,-1.36 2.24,-4.88 z"
             style="text-align:center;text-anchor:middle;fill:#ffffff;fill-opacity:1"
             id="path1123" />
          <path
             d="m 247.56359,308.39102 h 6.24 v -7.92 l 6.4,-1.84 v 9.76 h 10.88 v 5.6 h -10.88 v 22.16 q 0,4.16 1.04,5.92 1.04,1.68 3.52,1.68 2.08,0 3.52,-0.4 1.44,-0.48 3.2,-1.2 l 1.44,4.88 q -2.16,1.04 -4.72,1.68 -2.56,0.64 -5.52,0.64 -4.88,0 -6.88,-2.72 -2,-2.8 -2,-9.28 v -23.36 h -6.24 z"
             style="text-align:center;text-anchor:middle;fill:#ffffff;fill-opacity:1"
             id="path1125" />
          <path
             d="m 276.85359,328.39102 q 0,-10.16 4.48,-15.52 4.56,-5.44 13.04,-5.44 4.48,0 7.76,1.52 3.36,1.44 5.52,4.24 2.16,2.72 3.2,6.64 1.04,3.84 1.04,8.56 0,10.16 -4.56,15.6 -4.48,5.36 -12.96,5.36 -4.48,0 -7.84,-1.44 -3.28,-1.52 -5.44,-4.24 -2.16,-2.8 -3.2,-6.64 -1.04,-3.92 -1.04,-8.64 z m 6.64,0 q 0,3.04 0.56,5.84 0.64,2.8 1.92,4.88 1.28,2.08 3.36,3.36 2.08,1.28 5.04,1.28 10.88,0.08 10.88,-15.36 0,-3.12 -0.64,-5.92 -0.56,-2.8 -1.84,-4.88 -1.28,-2.08 -3.36,-3.28 -2.08,-1.28 -5.04,-1.28 -10.88,-0.08 -10.88,15.36 z"
             style="text-align:center;text-anchor:middle;fill:#ffffff;fill-opacity:1"
             id="path1127" />
          <path
             d="m 345.34609,348.39102 v -22.64 q 0,-3.2 -0.32,-5.52 -0.24,-2.4 -1.04,-4 -0.8,-1.6 -2.32,-2.4 -1.44,-0.8 -3.84,-0.8 -3.68,0 -6.16,2.24 -2.4,2.24 -3.36,5.6 v 27.52 h -6.4 v -40 h 4.48 l 1.2,4.88 h 0.32 q 2.16,-2.56 4.96,-4.16 2.88,-1.68 7.44,-1.68 3.84,0 6.24,1.52 2.48,1.44 3.84,5.12 1.84,-3.12 5.04,-4.88 3.28,-1.76 7.36,-1.76 3.36,0 5.68,0.8 2.32,0.72 3.84,2.64 1.52,1.92 2.16,5.2 0.72,3.28 0.72,8.32 v 24 h -6.4 v -24.08 q 0,-2.88 -0.32,-4.96 -0.24,-2.16 -1.12,-3.52 -0.8,-1.44 -2.32,-2.08 -1.44,-0.72 -3.84,-0.72 -4,0 -6.24,2.24 -2.24,2.24 -3.2,6.4 v 26.72 z"
             style="text-align:center;text-anchor:middle;fill:#ffffff;fill-opacity:1"
             id="path1129" />
          <path
             d="m 388.26609,308.39102 h 6.4 v 40 h -6.4 z m -1.36,-12.16 q 0,-1.84 1.2,-3.12 1.28,-1.36 3.2,-1.36 1.92,0 3.28,1.36 1.36,1.28 1.36,3.12 0,1.84 -1.36,3.04 -1.36,1.2 -3.28,1.2 -1.92,0 -3.2,-1.2 -1.2,-1.2 -1.2,-3.04 z"
             style="text-align:center;text-anchor:middle;fill:#ffffff;fill-opacity:1"
             id="path1131" />
          <path
             d="m 405.51234,342.79102 18.48,-25.44 3.36,-3.36 h -21.84 v -5.6 h 28.48 v 5.6 l -18.64,25.68 -3.28,3.12 h 21.92 v 5.6 h -28.48 z"
             style="text-align:center;text-anchor:middle;fill:#ffffff;fill-opacity:1"
             id="path1133" />
          <path
             d="m 472.04359,345.19102 q -2.4,1.92 -6.08,3.04 -3.6,1.12 -7.68,1.12 -4.56,0 -7.92,-1.44 -3.36,-1.52 -5.52,-4.24 -2.16,-2.8 -3.2,-6.64 -1.04,-3.84 -1.04,-8.64 0,-10.24 4.56,-15.6 4.56,-5.36 13.04,-5.36 2.72,0 5.44,0.64 2.72,0.56 4.88,2.24 2.16,1.68 3.52,4.8 1.36,3.04 1.36,8.08 0,2.64 -0.48,5.84 h -25.68 q 0,3.52 0.72,6.24 0.72,2.72 2.24,4.64 1.52,1.84 3.92,2.88 2.48,0.96 6,0.96 2.72,0 5.44,-0.96 2.72,-0.96 4.08,-2.24 z m -13.76,-32.16 q -4.72,0 -7.6,2.48 -2.8,2.48 -3.36,8.48 h 19.84 q 0,-6.08 -2.32,-8.48 -2.32,-2.48 -6.56,-2.48 z"
             style="text-align:center;text-anchor:middle;fill:#ffffff;fill-opacity:1"
             id="path1135" />
          <path
             d="m 514.18859,334.63102 q 0,4.08 0.08,7.44 0.08,3.28 0.72,6.48 h -4.32 l -1.6,-5.68 h -0.32 q -1.6,2.8 -4.64,4.64 -3.04,1.84 -7.12,1.84 -8,0 -11.92,-5.04 -3.84,-5.04 -3.84,-15.76 0,-10.24 4.8,-15.52 4.88,-5.36 13.36,-5.36 2.96,0 4.64,0.32 1.76,0.32 3.76,1.04 v -16.64 h 6.4 z m -16.16,9.12 q 4.08,0 6.48,-2.08 2.4,-2.16 3.28,-6.48 v -19.84 q -1.44,-1.12 -3.28,-1.6 -1.84,-0.48 -4.88,-0.48 -5.52,0 -8.64,3.68 -3.12,3.6 -3.12,11.6 0,3.28 0.48,6.08 0.56,2.8 1.76,4.8 1.2,2 3.12,3.2 2,1.12 4.8,1.12 z"
             style="text-align:center;text-anchor:middle;fill:#ffffff;fill-opacity:1"
             id="path1137" />
          <path
             d="m 573.52359,348.39102 v -22.8 q 0,-3.12 -0.4,-5.44 -0.32,-2.4 -1.28,-3.92 -0.96,-1.6 -2.64,-2.4 -1.6,-0.8 -4.24,-0.8 -3.76,0 -6.8,2.48 -3.04,2.4 -3.92,6.24 v 26.64 h -6.4 v -56 h 6.4 v 20.48 h 0.32 q 2.08,-2.48 4.96,-3.92 2.96,-1.52 7.28,-1.52 3.36,0 5.84,0.8 2.48,0.72 4.08,2.64 1.68,1.92 2.4,5.2 0.8,3.2 0.8,8.16 v 24.16 z"
             style="text-align:center;text-anchor:middle;fill:#ffffff;fill-opacity:1"
             id="path1139" />
          <path
             d="m 590.95359,311.35102 q 3.04,-1.84 7.04,-2.72 4.08,-0.88 8.48,-0.88 4.16,0 6.64,1.12 2.56,1.12 3.84,2.96 1.36,1.76 1.76,3.92 0.48,2.16 0.48,4.32 0,4.8 -0.24,9.36 -0.24,4.56 -0.24,8.64 0,2.96 0.24,5.6 0.24,2.64 0.88,4.88 h -4.72 l -1.68,-5.6 h -0.4 q -0.72,1.12 -1.84,2.24 -1.04,1.04 -2.56,1.92 -1.52,0.8 -3.52,1.36 -2,0.56 -4.56,0.56 -2.56,0 -4.8,-0.8 -2.16,-0.8 -3.76,-2.24 -1.6,-1.52 -2.56,-3.6 -0.88,-2.08 -0.88,-4.72 0,-3.52 1.44,-5.84 1.44,-2.4 4,-3.76 2.64,-1.44 6.24,-2 3.68,-0.64 8.08,-0.64 1.12,0 2.16,0 1.12,0 2.24,0.16 0.24,-2.4 0.24,-4.32 0,-4.4 -1.76,-6.16 -1.76,-1.76 -6.4,-1.76 -1.36,0 -2.96,0.24 -1.52,0.16 -3.2,0.56 -1.6,0.32 -3.12,0.88 -1.44,0.48 -2.56,1.12 z m 11.36,32.08 q 2.24,0 4,-0.56 1.76,-0.64 3.04,-1.52 1.28,-0.96 2.08,-2.08 0.88,-1.12 1.28,-2.16 v -6.64 q -1.12,-0.08 -2.32,-0.08 -1.12,-0.08 -2.24,-0.08 -2.48,0 -4.88,0.32 -2.32,0.24 -4.16,1.04 -1.76,0.72 -2.88,2.08 -1.04,1.28 -1.04,3.28 0,2.8 2,4.64 2,1.76 5.12,1.76 z"
             style="text-align:center;text-anchor:middle;fill:#ffffff;fill-opacity:1"
             id="path1141" />
          <path
             d="m 656.96109,348.39102 v -22.8 q 0,-6.24 -1.84,-9.36 -1.76,-3.2 -6.56,-3.2 -4.24,0 -7.04,2.32 -2.72,2.24 -3.84,5.68 v 27.36 h -6.4 v -40 h 4.48 l 1.2,4.88 h 0.32 q 1.92,-2.56 5.12,-4.16 3.28,-1.68 7.76,-1.68 3.28,0 5.76,0.8 2.48,0.72 4.08,2.64 1.68,1.92 2.48,5.2 0.88,3.2 0.88,8.16 v 24.16 z"
             style="text-align:center;text-anchor:middle;fill:#ffffff;fill-opacity:1"
             id="path1143" />
          <path
             d="m 705.75109,334.63102 q 0,4.08 0.08,7.44 0.08,3.28 0.72,6.48 h -4.32 l -1.6,-5.68 h -0.32 q -1.6,2.8 -4.64,4.64 -3.04,1.84 -7.12,1.84 -8,0 -11.92,-5.04 -3.84,-5.04 -3.84,-15.76 0,-10.24 4.8,-15.52 4.88,-5.36 13.36,-5.36 2.96,0 4.64,0.32 1.76,0.32 3.76,1.04 v -16.64 h 6.4 z m -16.16,9.12 q 4.08,0 6.48,-2.08 2.4,-2.16 3.28,-6.48 v -19.84 q -1.44,-1.12 -3.28,-1.6 -1.84,-0.48 -4.88,-0.48 -5.52,0 -8.64,3.68 -3.12,3.6 -3.12,11.6 0,3.28 0.48,6.08 0.56,2.8 1.76,4.8 1.2,2 3.12,3.2 2,1.12 4.8,1.12 z"
             style="text-align:center;text-anchor:middle;fill:#ffffff;fill-opacity:1"
             id="path1145" />
          <path
             d="m 741.43984,348.39102 v -22.64 q 0,-3.2 -0.32,-5.52 -0.24,-2.4 -1.04,-4 -0.8,-1.6 -2.32,-2.4 -1.44,-0.8 -3.84,-0.8 -3.68,0 -6.16,2.24 -2.4,2.24 -3.36,5.6 v 27.52 h -6.4 v -40 h 4.48 l 1.2,4.88 h 0.32 q 2.16,-2.56 4.96,-4.16 2.88,-1.68 7.44,-1.68 3.84,0 6.24,1.52 2.48,1.44 3.84,5.12 1.84,-3.12 5.04,-4.88 3.28,-1.76 7.36,-1.76 3.36,0 5.68,0.8 2.32,0.72 3.84,2.64 1.52,1.92 2.16,5.2 0.72,3.28 0.72,8.32 v 24 h -6.4 v -24.08 q 0,-2.88 -0.32,-4.96 -0.24,-2.16 -1.12,-3.52 -0.8,-1.44 -2.32,-2.08 -1.44,-0.72 -3.84,-0.72 -4,0 -6.24,2.24 -2.24,2.24 -3.2,6.4 v 26.72 z"
             style="text-align:center;text-anchor:middle;fill:#ffffff;fill-opacity:1"
             id="path1147" />
          <path
             d="m 782.35984,311.35102 q 3.04,-1.84 7.04,-2.72 4.08,-0.88 8.48,-0.88 4.16,0 6.64,1.12 2.56,1.12 3.84,2.96 1.36,1.76 1.76,3.92 0.48,2.16 0.48,4.32 0,4.8 -0.24,9.36 -0.24,4.56 -0.24,8.64 0,2.96 0.24,5.6 0.24,2.64 0.88,4.88 h -4.72 l -1.68,-5.6 h -0.4 q -0.72,1.12 -1.84,2.24 -1.04,1.04 -2.56,1.92 -1.52,0.8 -3.52,1.36 -2,0.56 -4.56,0.56 -2.56,0 -4.8,-0.8 -2.16,-0.8 -3.76,-2.24 -1.6,-1.52 -2.56,-3.6 -0.88,-2.08 -0.88,-4.72 0,-3.52 1.44,-5.84 1.44,-2.4 4,-3.76 2.64,-1.44 6.24,-2 3.68,-0.64 8.08,-0.64 1.12,0 2.16,0 1.12,0 2.24,0.16 0.24,-2.4 0.24,-4.32 0,-4.4 -1.76,-6.16 -1.76,-1.76 -6.4,-1.76 -1.36,0 -2.96,0.24 -1.52,0.16 -3.2,0.56 -1.6,0.32 -3.12,0.88 -1.44,0.48 -2.56,1.12 z m 11.36,32.08 q 2.24,0 4,-0.56 1.76,-0.64 3.04,-1.52 1.28,-0.96 2.08,-2.08 0.88,-1.12 1.28,-2.16 v -6.64 q -1.12,-0.08 -2.32,-0.08 -1.12,-0.08 -2.24,-0.08 -2.48,0 -4.88,0.32 -2.32,0.24 -4.16,1.04 -1.76,0.72 -2.88,2.08 -1.04,1.28 -1.04,3.28 0,2.8 2,4.64 2,1.76 5.12,1.76 z"
             style="text-align:center;text-anchor:middle;fill:#ffffff;fill-opacity:1"
             id="path1149" />
          <path
             d="m 853.40734,334.63102 q 0,4.08 0.08,7.44 0.08,3.28 0.72,6.48 h -4.32 l -1.6,-5.68 h -0.32 q -1.6,2.8 -4.64,4.64 -3.04,1.84 -7.12,1.84 -8,0 -11.92,-5.04 -3.84,-5.04 -3.84,-15.76 0,-10.24 4.8,-15.52 4.88,-5.36 13.36,-5.36 2.96,0 4.64,0.32 1.76,0.32 3.76,1.04 v -16.64 h 6.4 z m -16.16,9.12 q 4.08,0 6.48,-2.08 2.4,-2.16 3.28,-6.48 v -19.84 q -1.44,-1.12 -3.28,-1.6 -1.84,-0.48 -4.88,-0.48 -5.52,0 -8.64,3.68 -3.12,3.6 -3.12,11.6 0,3.28 0.48,6.08 0.56,2.8 1.76,4.8 1.2,2 3.12,3.2 2,1.12 4.8,1.12 z"
             style="text-align:center;text-anchor:middle;fill:#ffffff;fill-opacity:1"
             id="path1151" />
          <path
             d="m 894.85609,345.19102 q -2.4,1.92 -6.08,3.04 -3.6,1.12 -7.68,1.12 -4.56,0 -7.92,-1.44 -3.36,-1.52 -5.52,-4.24 -2.16,-2.8 -3.2,-6.64 -1.04,-3.84 -1.04,-8.64 0,-10.24 4.56,-15.6 4.56,-5.36 13.04,-5.36 2.72,0 5.44,0.64 2.72,0.56 4.88,2.24 2.16,1.68 3.52,4.8 1.36,3.04 1.36,8.08 0,2.64 -0.48,5.84 h -25.68 q 0,3.52 0.72,6.24 0.72,2.72 2.24,4.64 1.52,1.84 3.92,2.88 2.48,0.96 6,0.96 2.72,0 5.44,-0.96 2.72,-0.96 4.08,-2.24 z m -13.76,-32.16 q -4.72,0 -7.6,2.48 -2.8,2.48 -3.36,8.48 h 19.84 q 0,-6.08 -2.32,-8.48 -2.32,-2.48 -6.56,-2.48 z"
             style="text-align:center;text-anchor:middle;fill:#ffffff;fill-opacity:1"
             id="path1153" />
          <path
             d="m 155.20234,450.23102 q 0,7.76 -4.16,11.44 -4.08,3.68 -12.16,3.68 -4.8,0 -7.76,-0.64 -2.88,-0.56 -4.96,-1.52 l 1.68,-5.44 q 1.84,0.72 4.08,1.36 2.24,0.64 5.84,0.64 3.36,0 5.44,-0.64 2.16,-0.56 3.44,-2 1.28,-1.36 1.76,-3.6 0.48,-2.16 0.48,-5.2 v -3.84 h -0.32 q -1.6,2.32 -4.08,3.6 -2.48,1.2 -6.48,1.2 -8.08,0 -11.92,-5.04 -3.76,-5.04 -3.76,-15.68 0,-10.24 4.88,-15.52 4.88,-5.36 14.4,-5.36 4.56,0 7.76,0.72 3.28,0.72 5.84,1.68 z m -16.08,-6.56 q 4.08,0 6.4,-2 2.32,-2.08 3.28,-6.4 v -20.48 q -3.2,-1.52 -8.16,-1.52 -5.44,0 -8.56,3.68 -3.12,3.68 -3.12,11.52 0,3.36 0.56,6.16 0.56,2.8 1.76,4.8 1.2,2 3.12,3.12 1.92,1.12 4.72,1.12 z"
             style="text-align:center;text-anchor:middle;fill:#ffffff;fill-opacity:1"
             id="path1155" />
          <path
             d="m 168.89109,408.39102 h 6.4 v 40 h -6.4 z m -1.36,-12.16 q 0,-1.84 1.2,-3.12 1.28,-1.36 3.2,-1.36 1.92,0 3.28,1.36 1.36,1.28 1.36,3.12 0,1.84 -1.36,3.04 -1.36,1.2 -3.28,1.2 -1.92,0 -3.2,-1.2 -1.2,-1.2 -1.2,-3.04 z"
             style="text-align:center;text-anchor:middle;fill:#ffffff;fill-opacity:1"
             id="path1157" />
          <path
             d="m 184.53734,408.39102 h 6.24 v -2.24 q 0,-3.68 0.56,-6.4 0.64,-2.72 2,-4.4 1.36,-1.76 3.52,-2.56 2.16,-0.88 5.36,-0.88 2.56,0 4.48,0.32 2,0.32 4.16,1.2 l -1.44,5.36 q -1.84,-0.8 -3.52,-1.04 -1.6,-0.24 -3.04,-0.24 -2.08,0 -3.28,0.64 -1.12,0.64 -1.68,1.92 -0.48,1.2 -0.64,3.04 -0.08,1.76 -0.08,4.16 v 1.12 h 10.64 v 5.6 h -10.64 v 34.4 h -6.4 v -34.4 h -6.24 z"
             style="text-align:center;text-anchor:middle;fill:#ffffff;fill-opacity:1"
             id="path1159" />
          <path
             d="m 207.87609,408.39102 h 6.24 v -7.92 l 6.4,-1.84 v 9.76 h 10.88 v 5.6 h -10.88 v 22.16 q 0,4.16 1.04,5.92 1.04,1.68 3.52,1.68 2.08,0 3.52,-0.4 1.44,-0.48 3.2,-1.2 l 1.44,4.88 q -2.16,1.04 -4.72,1.68 -2.56,0.64 -5.52,0.64 -4.88,0 -6.88,-2.72 -2,-2.8 -2,-9.28 v -23.36 h -6.24 z"
             style="text-align:center;text-anchor:middle;fill:#ffffff;fill-opacity:1"
             id="path1161" />
          <path
             d="m 257.94359,437.51102 q 0,-2.4 -1.44,-3.76 -1.44,-1.36 -3.6,-2.24 -2.08,-0.96 -4.64,-1.76 -2.48,-0.88 -4.64,-2.16 -2.08,-1.36 -3.52,-3.44 -1.44,-2.08 -1.44,-5.6 0,-5.76 3.28,-8.4 3.28,-2.72 9.12,-2.72 4.32,0 7.2,0.8 2.96,0.72 5.12,1.76 l -1.52,5.28 q -1.84,-0.88 -4.48,-1.52 -2.56,-0.72 -5.52,-0.72 -3.52,0 -5.2,1.2 -1.6,1.2 -1.6,4.16 0,2.08 1.44,3.28 1.44,1.12 3.52,2.08 2.16,0.88 4.64,1.76 2.56,0.88 4.64,2.32 2.16,1.44 3.6,3.68 1.44,2.16 1.44,5.76 0,2.56 -0.88,4.8 -0.8,2.24 -2.56,3.84 -1.76,1.6 -4.4,2.48 -2.56,0.96 -6.08,0.96 -4.56,0 -7.76,-0.88 -3.2,-0.88 -5.36,-2.08 l 1.92,-5.44 q 1.84,1.04 4.8,1.92 2.96,0.88 6,0.88 3.44,0 5.68,-1.36 2.24,-1.36 2.24,-4.88 z"
             style="text-align:center;text-anchor:middle;fill:#ffffff;fill-opacity:1"
             id="path1163" />
          <path
             d="m 294.85984,411.35102 q 3.04,-1.84 7.04,-2.72 4.08,-0.88 8.48,-0.88 4.16,0 6.64,1.12 2.56,1.12 3.84,2.96 1.36,1.76 1.76,3.92 0.48,2.16 0.48,4.32 0,4.8 -0.24,9.36 -0.24,4.56 -0.24,8.64 0,2.96 0.24,5.6 0.24,2.64 0.88,4.88 h -4.72 l -1.68,-5.6 h -0.4 q -0.72,1.12 -1.84,2.24 -1.04,1.04 -2.56,1.92 -1.52,0.8 -3.52,1.36 -2,0.56 -4.56,0.56 -2.56,0 -4.8,-0.8 -2.16,-0.8 -3.76,-2.24 -1.6,-1.52 -2.56,-3.6 -0.88,-2.08 -0.88,-4.72 0,-3.52 1.44,-5.84 1.44,-2.4 4,-3.76 2.64,-1.44 6.24,-2 3.68,-0.64 8.08,-0.64 1.12,0 2.16,0 1.12,0 2.24,0.16 0.24,-2.4 0.24,-4.32 0,-4.4 -1.76,-6.16 -1.76,-1.76 -6.4,-1.76 -1.36,0 -2.96,0.24 -1.52,0.16 -3.2,0.56 -1.6,0.32 -3.12,0.88 -1.44,0.48 -2.56,1.12 z m 11.36,32.08 q 2.24,0 4,-0.56 1.76,-0.64 3.04,-1.52 1.28,-0.96 2.08,-2.08 0.88,-1.12 1.28,-2.16 v -6.64 q -1.12,-0.08 -2.32,-0.08 -1.12,-0.08 -2.24,-0.08 -2.48,0 -4.88,0.32 -2.32,0.24 -4.16,1.04 -1.76,0.72 -2.88,2.08 -1.04,1.28 -1.04,3.28 0,2.8 2,4.64 2,1.76 5.12,1.76 z"
             style="text-align:center;text-anchor:middle;fill:#ffffff;fill-opacity:1"
             id="path1165" />
          <path
             d="m 360.86734,448.39102 v -22.8 q 0,-6.24 -1.84,-9.36 -1.76,-3.2 -6.56,-3.2 -4.24,0 -7.04,2.32 -2.72,2.24 -3.84,5.68 v 27.36 h -6.4 v -40 h 4.48 l 1.2,4.88 h 0.32 q 1.92,-2.56 5.12,-4.16 3.28,-1.68 7.76,-1.68 3.28,0 5.76,0.8 2.48,0.72 4.08,2.64 1.68,1.92 2.48,5.2 0.88,3.2 0.88,8.16 v 24.16 z"
             style="text-align:center;text-anchor:middle;fill:#ffffff;fill-opacity:1"
             id="path1167" />
          <path
             d="m 409.65734,434.63102 q 0,4.08 0.08,7.44 0.08,3.28 0.72,6.48 h -4.32 l -1.6,-5.68 h -0.32 q -1.6,2.8 -4.64,4.64 -3.04,1.84 -7.12,1.84 -8,0 -11.92,-5.04 -3.84,-5.04 -3.84,-15.76 0,-10.24 4.8,-15.52 4.88,-5.36 13.36,-5.36 2.96,0 4.64,0.32 1.76,0.32 3.76,1.04 v -16.64 h 6.4 z m -16.16,9.12 q 4.08,0 6.48,-2.08 2.4,-2.16 3.28,-6.48 v -19.84 q -1.44,-1.12 -3.28,-1.6 -1.84,-0.48 -4.88,-0.48 -5.52,0 -8.64,3.68 -3.12,3.6 -3.12,11.6 0,3.28 0.48,6.08 0.56,2.8 1.76,4.8 1.2,2 3.12,3.2 2,1.12 4.8,1.12 z"
             style="text-align:center;text-anchor:middle;fill:#ffffff;fill-opacity:1"
             id="path1169" />
          <path
             d="m 443.31234,408.39102 h 4.4 l 1.2,4.8 h 0.32 q 1.84,-2.8 4.72,-4.24 2.96,-1.52 6.72,-1.52 8,0 11.92,4.72 3.92,4.72 3.92,15.44 0,5.04 -1.36,9.12 -1.28,4 -3.68,6.8 -2.4,2.8 -5.84,4.32 -3.36,1.52 -7.52,1.52 -2.96,0 -4.72,-0.4 -1.68,-0.32 -3.68,-1.2 v 16.64 h -6.4 z m 16.16,4.64 q -4.08,0 -6.48,2.16 -2.32,2.08 -3.28,6.4 v 19.84 q 1.44,1.12 3.28,1.76 1.84,0.56 4.88,0.56 5.52,0 8.72,-4.08 3.28,-4.16 3.28,-12.16 0,-3.28 -0.56,-5.92 -0.56,-2.72 -1.84,-4.56 -1.2,-1.92 -3.2,-2.96 -1.92,-1.04 -4.8,-1.04 z"
             style="text-align:center;text-anchor:middle;fill:#ffffff;fill-opacity:1"
             id="path1171" />
          <path
             d="m 505.47359,414.55102 q -2.4,-0.8 -4.56,-0.8 -3.44,0 -5.44,1.92 -2,1.84 -2.48,4.72 v 28 h -6.4 v -40 h 4.48 l 1.2,4.88 h 0.32 q 1.52,-2.72 3.6,-4.16 2.16,-1.52 5.44,-1.52 2.32,0 5.2,0.8 z"
             style="text-align:center;text-anchor:middle;fill:#ffffff;fill-opacity:1"
             id="path1173" />
          <path
             d="m 511.54109,428.39102 q 0,-10.16 4.48,-15.52 4.56,-5.44 13.04,-5.44 4.48,0 7.76,1.52 3.36,1.44 5.52,4.24 2.16,2.72 3.2,6.64 1.04,3.84 1.04,8.56 0,10.16 -4.56,15.6 -4.48,5.36 -12.96,5.36 -4.48,0 -7.84,-1.44 -3.28,-1.52 -5.44,-4.24 -2.16,-2.8 -3.2,-6.64 -1.04,-3.92 -1.04,-8.64 z m 6.64,0 q 0,3.04 0.56,5.84 0.64,2.8 1.92,4.88 1.28,2.08 3.36,3.36 2.08,1.28 5.04,1.28 10.88,0.08 10.88,-15.36 0,-3.12 -0.64,-5.92 -0.56,-2.8 -1.84,-4.88 -1.28,-2.08 -3.36,-3.28 -2.08,-1.28 -5.04,-1.28 -10.88,-0.08 -10.88,15.36 z"
             style="text-align:center;text-anchor:middle;fill:#ffffff;fill-opacity:1"
             id="path1175" />
          <path
             d="m 587.31359,434.63102 q 0,4.08 0.08,7.44 0.08,3.28 0.72,6.48 h -4.32 l -1.6,-5.68 h -0.32 q -1.6,2.8 -4.64,4.64 -3.04,1.84 -7.12,1.84 -8,0 -11.92,-5.04 -3.84,-5.04 -3.84,-15.76 0,-10.24 4.8,-15.52 4.88,-5.36 13.36,-5.36 2.96,0 4.64,0.32 1.76,0.32 3.76,1.04 v -16.64 h 6.4 z m -16.16,9.12 q 4.08,0 6.48,-2.08 2.4,-2.16 3.28,-6.48 v -19.84 q -1.44,-1.12 -3.28,-1.6 -1.84,-0.48 -4.88,-0.48 -5.52,0 -8.64,3.68 -3.12,3.6 -3.12,11.6 0,3.28 0.48,6.08 0.56,2.8 1.76,4.8 1.2,2 3.12,3.2 2,1.12 4.8,1.12 z"
             style="text-align:center;text-anchor:middle;fill:#ffffff;fill-opacity:1"
             id="path1177" />
          <path
             d="m 605.32234,408.39102 v 22.8 q 0,3.12 0.32,5.52 0.4,2.32 1.28,3.92 0.88,1.52 2.4,2.32 1.52,0.8 3.84,0.8 2.16,0 3.84,-0.64 1.68,-0.72 2.96,-1.92 1.36,-1.2 2.32,-2.72 1.04,-1.6 1.68,-3.36 v -26.72 h 6.4 v 28.64 q 0,2.88 0.16,6 0.24,3.04 0.72,5.36 h -4.4 l -1.6,-6.32 h -0.4 q -1.84,3.12 -4.96,5.2 -3.12,2.08 -7.92,2.08 -3.2,0 -5.68,-0.8 -2.4,-0.72 -4.08,-2.64 -1.6,-1.92 -2.48,-5.12 -0.8,-3.28 -0.8,-8.24 v -24.16 z"
             style="text-align:center;text-anchor:middle;fill:#ffffff;fill-opacity:1"
             id="path1179" />
          <path
             d="m 669.96734,445.75102 q -2.4,1.76 -5.68,2.64 -3.28,0.96 -6.88,0.96 -4.64,0 -7.84,-1.44 -3.2,-1.52 -5.28,-4.24 -2,-2.8 -2.96,-6.64 -0.88,-3.92 -0.88,-8.64 0,-10.16 4.48,-15.52 4.48,-5.44 12.88,-5.44 3.84,0 6.48,0.64 2.72,0.56 4.88,1.68 l -1.84,5.52 q -1.84,-1.04 -4.08,-1.6 -2.24,-0.64 -4.8,-0.64 -11.36,0 -11.36,15.36 0,3.04 0.56,5.84 0.64,2.72 2,4.88 1.44,2.08 3.68,3.36 2.32,1.28 5.68,1.28 2.88,0 5.12,-0.88 2.32,-0.88 3.76,-2 z"
             style="text-align:center;text-anchor:middle;fill:#ffffff;fill-opacity:1"
             id="path1181" />
          <path
             d="m 673.50109,408.39102 h 6.24 v -7.92 l 6.4,-1.84 v 9.76 h 10.88 v 5.6 h -10.88 v 22.16 q 0,4.16 1.04,5.92 1.04,1.68 3.52,1.68 2.08,0 3.52,-0.4 1.44,-0.48 3.2,-1.2 l 1.44,4.88 q -2.16,1.04 -4.72,1.68 -2.56,0.64 -5.52,0.64 -4.88,0 -6.88,-2.72 -2,-2.8 -2,-9.28 v -23.36 h -6.24 z"
             style="text-align:center;text-anchor:middle;fill:#ffffff;fill-opacity:1"
             id="path1183" />
          <path
             d="m 723.56859,437.51102 q 0,-2.4 -1.44,-3.76 -1.44,-1.36 -3.6,-2.24 -2.08,-0.96 -4.64,-1.76 -2.48,-0.88 -4.64,-2.16 -2.08,-1.36 -3.52,-3.44 -1.44,-2.08 -1.44,-5.6 0,-5.76 3.28,-8.4 3.28,-2.72 9.12,-2.72 4.32,0 7.2,0.8 2.96,0.72 5.12,1.76 l -1.52,5.28 q -1.84,-0.88 -4.48,-1.52 -2.56,-0.72 -5.52,-0.72 -3.52,0 -5.2,1.2 -1.6,1.2 -1.6,4.16 0,2.08 1.44,3.28 1.44,1.12 3.52,2.08 2.16,0.88 4.64,1.76 2.56,0.88 4.64,2.32 2.16,1.44 3.6,3.68 1.44,2.16 1.44,5.76 0,2.56 -0.88,4.8 -0.8,2.24 -2.56,3.84 -1.76,1.6 -4.4,2.48 -2.56,0.96 -6.08,0.96 -4.56,0 -7.76,-0.88 -3.2,-0.88 -5.36,-2.08 l 1.92,-5.44 q 1.84,1.04 4.8,1.92 2.96,0.88 6,0.88 3.44,0 5.68,-1.36 2.24,-1.36 2.24,-4.88 z"
             style="text-align:center;text-anchor:middle;fill:#ffffff;fill-opacity:1"
             id="path1185" />
          <path
             d="m 756.72484,408.39102 h 6.24 v -2.24 q 0,-3.68 0.56,-6.4 0.64,-2.72 2,-4.4 1.36,-1.76 3.52,-2.56 2.16,-0.88 5.36,-0.88 2.56,0 4.48,0.32 2,0.32 4.16,1.2 l -1.44,5.36 q -1.84,-0.8 -3.52,-1.04 -1.6,-0.24 -3.04,-0.24 -2.08,0 -3.28,0.64 -1.12,0.64 -1.68,1.92 -0.48,1.2 -0.64,3.04 -0.08,1.76 -0.08,4.16 v 1.12 h 10.64 v 5.6 h -10.64 v 34.4 h -6.4 v -34.4 h -6.24 z"
             style="text-align:center;text-anchor:middle;fill:#ffffff;fill-opacity:1"
             id="path1187" />
          <path
             d="m 805.47359,414.55102 q -2.4,-0.8 -4.56,-0.8 -3.44,0 -5.44,1.92 -2,1.84 -2.48,4.72 v 28 h -6.4 v -40 h 4.48 l 1.2,4.88 h 0.32 q 1.52,-2.72 3.6,-4.16 2.16,-1.52 5.44,-1.52 2.32,0 5.2,0.8 z"
             style="text-align:center;text-anchor:middle;fill:#ffffff;fill-opacity:1"
             id="path1189" />
          <path
             d="m 811.54109,428.39102 q 0,-10.16 4.48,-15.52 4.56,-5.44 13.04,-5.44 4.48,0 7.76,1.52 3.36,1.44 5.52,4.24 2.16,2.72 3.2,6.64 1.04,3.84 1.04,8.56 0,10.16 -4.56,15.6 -4.48,5.36 -12.96,5.36 -4.48,0 -7.84,-1.44 -3.28,-1.52 -5.44,-4.24 -2.16,-2.8 -3.2,-6.64 -1.04,-3.92 -1.04,-8.64 z m 6.64,0 q 0,3.04 0.56,5.84 0.64,2.8 1.92,4.88 1.28,2.08 3.36,3.36 2.08,1.28 5.04,1.28 10.88,0.08 10.88,-15.36 0,-3.12 -0.64,-5.92 -0.56,-2.8 -1.84,-4.88 -1.28,-2.08 -3.36,-3.28 -2.08,-1.28 -5.04,-1.28 -10.88,-0.08 -10.88,15.36 z"
             style="text-align:center;text-anchor:middle;fill:#ffffff;fill-opacity:1"
             id="path1191" />
          <path
             d="m 880.03359,448.39102 v -22.64 q 0,-3.2 -0.32,-5.52 -0.24,-2.4 -1.04,-4 -0.8,-1.6 -2.32,-2.4 -1.44,-0.8 -3.84,-0.8 -3.68,0 -6.16,2.24 -2.4,2.24 -3.36,5.6 v 27.52 h -6.4 v -40 h 4.48 l 1.2,4.88 h 0.32 q 2.16,-2.56 4.96,-4.16 2.88,-1.68 7.44,-1.68 3.84,0 6.24,1.52 2.48,1.44 3.84,5.12 1.84,-3.12 5.04,-4.88 3.28,-1.76 7.36,-1.76 3.36,0 5.68,0.8 2.32,0.72 3.84,2.64 1.52,1.92 2.16,5.2 0.72,3.28 0.72,8.32 v 24 h -6.4 v -24.08 q 0,-2.88 -0.32,-4.96 -0.24,-2.16 -1.12,-3.52 -0.8,-1.44 -2.32,-2.08 -1.44,-0.72 -3.84,-0.72 -4,0 -6.24,2.24 -2.24,2.24 -3.2,6.4 v 26.72 z"
             style="text-align:center;text-anchor:middle;fill:#ffffff;fill-opacity:1"
             id="path1193" />
          <path
             d="m 107.51609,511.35102 q 3.04,-1.84 7.04,-2.72 4.08,-0.88 8.48,-0.88 4.16,0 6.64,1.12 2.56,1.12 3.84,2.96 1.36,1.76 1.76,3.92 0.48,2.16 0.48,4.32 0,4.8 -0.24,9.36 -0.24,4.56 -0.24,8.64 0,2.96 0.24,5.6 0.24,2.64 0.88,4.88 h -4.72 l -1.68,-5.6 h -0.4 q -0.72,1.12 -1.84,2.24 -1.04,1.04 -2.56,1.92 -1.52,0.8 -3.52,1.36 -2,0.56 -4.56,0.56 -2.56,0 -4.8,-0.8 -2.16,-0.8 -3.76,-2.24 -1.6,-1.52 -2.56,-3.6 -0.88,-2.08 -0.88,-4.72 0,-3.52 1.44,-5.84 1.44,-2.4 4,-3.76 2.64,-1.44 6.24,-2 3.68,-0.64 8.08,-0.64 1.12,0 2.16,0 1.12,0 2.24,0.16 0.24,-2.4 0.24,-4.32 0,-4.4 -1.76,-6.16 -1.76,-1.76 -6.4,-1.76 -1.36,0 -2.96,0.24 -1.52,0.16 -3.2,0.56 -1.6,0.32 -3.12,0.88 -1.44,0.48 -2.56,1.12 z m 11.36,32.08 q 2.24,0 4,-0.56 1.76,-0.64 3.04,-1.52 1.28,-0.96 2.08,-2.08 0.88,-1.12 1.28,-2.16 v -6.64 q -1.12,-0.08 -2.32,-0.08 -1.12,-0.08 -2.24,-0.08 -2.48,0 -4.88,0.32 -2.32,0.24 -4.16,1.04 -1.76,0.72 -2.88,2.08 -1.04,1.28 -1.04,3.28 0,2.8 2,4.64 2,1.76 5.12,1.76 z"
             style="text-align:center;text-anchor:middle;fill:#ffffff;fill-opacity:1"
             id="path1195" />
          <path
             d="m 166.72359,514.55102 q -2.4,-0.8 -4.56,-0.8 -3.44,0 -5.44,1.92 -2,1.84 -2.48,4.72 v 28 h -6.4 v -40 h 4.48 l 1.2,4.88 h 0.32 q 1.52,-2.72 3.6,-4.16 2.16,-1.52 5.44,-1.52 2.32,0 5.2,0.8 z"
             style="text-align:center;text-anchor:middle;fill:#ffffff;fill-opacity:1"
             id="path1197" />
          <path
             d="m 172.09484,508.39102 h 6.24 v -7.92 l 6.4,-1.84 v 9.76 h 10.88 v 5.6 h -10.88 v 22.16 q 0,4.16 1.04,5.92 1.04,1.68 3.52,1.68 2.08,0 3.52,-0.4 1.44,-0.48 3.2,-1.2 l 1.44,4.88 q -2.16,1.04 -4.72,1.68 -2.56,0.64 -5.52,0.64 -4.88,0 -6.88,-2.72 -2,-2.8 -2,-9.28 v -23.36 h -6.24 z"
             style="text-align:center;text-anchor:middle;fill:#ffffff;fill-opacity:1"
             id="path1199" />
          <path
             d="m 205.92234,508.39102 h 6.4 v 40 h -6.4 z m -1.36,-12.16 q 0,-1.84 1.2,-3.12 1.28,-1.36 3.2,-1.36 1.92,0 3.28,1.36 1.36,1.28 1.36,3.12 0,1.84 -1.36,3.04 -1.36,1.2 -3.28,1.2 -1.92,0 -3.2,-1.2 -1.2,-1.2 -1.2,-3.04 z"
             style="text-align:center;text-anchor:middle;fill:#ffffff;fill-opacity:1"
             id="path1201" />
          <path
             d="m 243.56859,537.51102 q 0,-2.4 -1.44,-3.76 -1.44,-1.36 -3.6,-2.24 -2.08,-0.96 -4.64,-1.76 -2.48,-0.88 -4.64,-2.16 -2.08,-1.36 -3.52,-3.44 -1.44,-2.08 -1.44,-5.6 0,-5.76 3.28,-8.4 3.28,-2.72 9.12,-2.72 4.32,0 7.2,0.8 2.96,0.72 5.12,1.76 l -1.52,5.28 q -1.84,-0.88 -4.48,-1.52 -2.56,-0.72 -5.52,-0.72 -3.52,0 -5.2,1.2 -1.6,1.2 -1.6,4.16 0,2.08 1.44,3.28 1.44,1.12 3.52,2.08 2.16,0.88 4.64,1.76 2.56,0.88 4.64,2.32 2.16,1.44 3.6,3.68 1.44,2.16 1.44,5.76 0,2.56 -0.88,4.8 -0.8,2.24 -2.56,3.84 -1.76,1.6 -4.4,2.48 -2.56,0.96 -6.08,0.96 -4.56,0 -7.76,-0.88 -3.2,-0.88 -5.36,-2.08 l 1.92,-5.44 q 1.84,1.04 4.8,1.92 2.96,0.88 6,0.88 3.44,0 5.68,-1.36 2.24,-1.36 2.24,-4.88 z"
             style="text-align:center;text-anchor:middle;fill:#ffffff;fill-opacity:1"
             id="path1203" />
          <path
             d="m 254.43859,508.39102 h 6.24 v -7.92 l 6.4,-1.84 v 9.76 h 10.88 v 5.6 h -10.88 v 22.16 q 0,4.16 1.04,5.92 1.04,1.68 3.52,1.68 2.08,0 3.52,-0.4 1.44,-0.48 3.2,-1.2 l 1.44,4.88 q -2.16,1.04 -4.72,1.68 -2.56,0.64 -5.52,0.64 -4.88,0 -6.88,-2.72 -2,-2.8 -2,-9.28 v -23.36 h -6.24 z"
             style="text-align:center;text-anchor:middle;fill:#ffffff;fill-opacity:1"
             id="path1205" />
          <path
             d="m 304.50609,537.51102 q 0,-2.4 -1.44,-3.76 -1.44,-1.36 -3.6,-2.24 -2.08,-0.96 -4.64,-1.76 -2.48,-0.88 -4.64,-2.16 -2.08,-1.36 -3.52,-3.44 -1.44,-2.08 -1.44,-5.6 0,-5.76 3.28,-8.4 3.28,-2.72 9.12,-2.72 4.32,0 7.2,0.8 2.96,0.72 5.12,1.76 l -1.52,5.28 q -1.84,-0.88 -4.48,-1.52 -2.56,-0.72 -5.52,-0.72 -3.52,0 -5.2,1.2 -1.6,1.2 -1.6,4.16 0,2.08 1.44,3.28 1.44,1.12 3.52,2.08 2.16,0.88 4.64,1.76 2.56,0.88 4.64,2.32 2.16,1.44 3.6,3.68 1.44,2.16 1.44,5.76 0,2.56 -0.88,4.8 -0.8,2.24 -2.56,3.84 -1.76,1.6 -4.4,2.48 -2.56,0.96 -6.08,0.96 -4.56,0 -7.76,-0.88 -3.2,-0.88 -5.36,-2.08 l 1.92,-5.44 q 1.84,1.04 4.8,1.92 2.96,0.88 6,0.88 3.44,0 5.68,-1.36 2.24,-1.36 2.24,-4.88 z"
             style="text-align:center;text-anchor:middle;fill:#ffffff;fill-opacity:1"
             id="path1207" />
          <path
             d="m 318.41609,544.95102 q 0,-1.92 1.28,-3.12 1.28,-1.2 3.28,-1.2 2.48,0 4,1.76 1.6,1.76 1.6,5.12 0,2.88 -0.8,5.04 -0.8,2.16 -2.08,3.68 -1.28,1.6 -2.8,2.56 -1.52,1.04 -3.04,1.52 l -2,-3.12 q 2.88,-1.12 4.24,-3.52 1.44,-2.32 1.44,-4.72 -0.72,0.24 -1.36,0.24 -1.6,0 -2.72,-1.04 -1.04,-1.12 -1.04,-3.2 z"
             style="text-align:center;text-anchor:middle;fill:#ffffff;fill-opacity:1"
             id="path1209" />
          <path
             d="m 379.46109,548.39102 v -22.8 q 0,-3.12 -0.4,-5.44 -0.32,-2.4 -1.28,-3.92 -0.96,-1.6 -2.64,-2.4 -1.6,-0.8 -4.24,-0.8 -3.76,0 -6.8,2.48 -3.04,2.4 -3.92,6.24 v 26.64 h -6.4 v -56 h 6.4 v 20.48 h 0.32 q 2.08,-2.48 4.96,-3.92 2.96,-1.52 7.28,-1.52 3.36,0 5.84,0.8 2.48,0.72 4.08,2.64 1.68,1.92 2.4,5.2 0.8,3.2 0.8,8.16 v 24.16 z"
             style="text-align:center;text-anchor:middle;fill:#ffffff;fill-opacity:1"
             id="path1211" />
          <path
             d="m 395.29109,528.39102 q 0,-10.16 4.48,-15.52 4.56,-5.44 13.04,-5.44 4.48,0 7.76,1.52 3.36,1.44 5.52,4.24 2.16,2.72 3.2,6.64 1.04,3.84 1.04,8.56 0,10.16 -4.56,15.6 -4.48,5.36 -12.96,5.36 -4.48,0 -7.84,-1.44 -3.28,-1.52 -5.44,-4.24 -2.16,-2.8 -3.2,-6.64 -1.04,-3.92 -1.04,-8.64 z m 6.64,0 q 0,3.04 0.56,5.84 0.64,2.8 1.92,4.88 1.28,2.08 3.36,3.36 2.08,1.28 5.04,1.28 10.88,0.08 10.88,-15.36 0,-3.12 -0.64,-5.92 -0.56,-2.8 -1.84,-4.88 -1.28,-2.08 -3.36,-3.28 -2.08,-1.28 -5.04,-1.28 -10.88,-0.08 -10.88,15.36 z"
             style="text-align:center;text-anchor:middle;fill:#ffffff;fill-opacity:1"
             id="path1213" />
          <path
             d="m 463.78359,548.39102 v -22.64 q 0,-3.2 -0.32,-5.52 -0.24,-2.4 -1.04,-4 -0.8,-1.6 -2.32,-2.4 -1.44,-0.8 -3.84,-0.8 -3.68,0 -6.16,2.24 -2.4,2.24 -3.36,5.6 v 27.52 h -6.4 v -40 h 4.48 l 1.2,4.88 h 0.32 q 2.16,-2.56 4.96,-4.16 2.88,-1.68 7.44,-1.68 3.84,0 6.24,1.52 2.48,1.44 3.84,5.12 1.84,-3.12 5.04,-4.88 3.28,-1.76 7.36,-1.76 3.36,0 5.68,0.8 2.32,0.72 3.84,2.64 1.52,1.92 2.16,5.2 0.72,3.28 0.72,8.32 v 24 h -6.4 v -24.08 q 0,-2.88 -0.32,-4.96 -0.24,-2.16 -1.12,-3.52 -0.8,-1.44 -2.32,-2.08 -1.44,-0.72 -3.84,-0.72 -4,0 -6.24,2.24 -2.24,2.24 -3.2,6.4 v 26.72 z"
             style="text-align:center;text-anchor:middle;fill:#ffffff;fill-opacity:1"
             id="path1215" />
          <path
             d="m 534.54359,545.19102 q -2.4,1.92 -6.08,3.04 -3.6,1.12 -7.68,1.12 -4.56,0 -7.92,-1.44 -3.36,-1.52 -5.52,-4.24 -2.16,-2.8 -3.2,-6.64 -1.04,-3.84 -1.04,-8.64 0,-10.24 4.56,-15.6 4.56,-5.36 13.04,-5.36 2.72,0 5.44,0.64 2.72,0.56 4.88,2.24 2.16,1.68 3.52,4.8 1.36,3.04 1.36,8.08 0,2.64 -0.48,5.84 h -25.68 q 0,3.52 0.72,6.24 0.72,2.72 2.24,4.64 1.52,1.84 3.92,2.88 2.48,0.96 6,0.96 2.72,0 5.44,-0.96 2.72,-0.96 4.08,-2.24 z m -13.76,-32.16 q -4.72,0 -7.6,2.48 -2.8,2.48 -3.36,8.48 h 19.84 q 0,-6.08 -2.32,-8.48 -2.32,-2.48 -6.56,-2.48 z"
             style="text-align:center;text-anchor:middle;fill:#ffffff;fill-opacity:1"
             id="path1217" />
          <path
             d="m 584.97484,537.51102 q 0,-2.4 -1.44,-3.76 -1.44,-1.36 -3.6,-2.24 -2.08,-0.96 -4.64,-1.76 -2.48,-0.88 -4.64,-2.16 -2.08,-1.36 -3.52,-3.44 -1.44,-2.08 -1.44,-5.6 0,-5.76 3.28,-8.4 3.28,-2.72 9.12,-2.72 4.32,0 7.2,0.8 2.96,0.72 5.12,1.76 l -1.52,5.28 q -1.84,-0.88 -4.48,-1.52 -2.56,-0.72 -5.52,-0.72 -3.52,0 -5.2,1.2 -1.6,1.2 -1.6,4.16 0,2.08 1.44,3.28 1.44,1.12 3.52,2.08 2.16,0.88 4.64,1.76 2.56,0.88 4.64,2.32 2.16,1.44 3.6,3.68 1.44,2.16 1.44,5.76 0,2.56 -0.88,4.8 -0.8,2.24 -2.56,3.84 -1.76,1.6 -4.4,2.48 -2.56,0.96 -6.08,0.96 -4.56,0 -7.76,-0.88 -3.2,-0.88 -5.36,-2.08 l 1.92,-5.44 q 1.84,1.04 4.8,1.92 2.96,0.88 6,0.88 3.44,0 5.68,-1.36 2.24,-1.36 2.24,-4.88 z"
             style="text-align:center;text-anchor:middle;fill:#ffffff;fill-opacity:1"
             id="path1219" />
          <path
             d="m 630.32484,545.19102 q -2.4,1.92 -6.08,3.04 -3.6,1.12 -7.68,1.12 -4.56,0 -7.92,-1.44 -3.36,-1.52 -5.52,-4.24 -2.16,-2.8 -3.2,-6.64 -1.04,-3.84 -1.04,-8.64 0,-10.24 4.56,-15.6 4.56,-5.36 13.04,-5.36 2.72,0 5.44,0.64 2.72,0.56 4.88,2.24 2.16,1.68 3.52,4.8 1.36,3.04 1.36,8.08 0,2.64 -0.48,5.84 h -25.68 q 0,3.52 0.72,6.24 0.72,2.72 2.24,4.64 1.52,1.84 3.92,2.88 2.48,0.96 6,0.96 2.72,0 5.44,-0.96 2.72,-0.96 4.08,-2.24 z m -13.76,-32.16 q -4.72,0 -7.6,2.48 -2.8,2.48 -3.36,8.48 h 19.84 q 0,-6.08 -2.32,-8.48 -2.32,-2.48 -6.56,-2.48 z"
             style="text-align:center;text-anchor:middle;fill:#ffffff;fill-opacity:1"
             id="path1221" />
          <path
             d="m 648.86984,538.55102 q 0,2.8 0.96,4 0.96,1.2 2.72,1.2 1.04,0 2.24,-0.16 1.2,-0.16 2.72,-0.72 l 0.72,5.04 q -1.28,0.64 -3.6,1.04 -2.24,0.4 -3.92,0.4 -3.6,0 -5.92,-2 -2.32,-2.08 -2.32,-6.96 v -48 h 6.4 z"
             style="text-align:center;text-anchor:middle;fill:#ffffff;fill-opacity:1"
             id="path1223" />
          <path
             d="m 672.30734,538.55102 q 0,2.8 0.96,4 0.96,1.2 2.72,1.2 1.04,0 2.24,-0.16 1.2,-0.16 2.72,-0.72 l 0.72,5.04 q -1.28,0.64 -3.6,1.04 -2.24,0.4 -3.92,0.4 -3.6,0 -5.92,-2 -2.32,-2.08 -2.32,-6.96 v -48 h 6.4 z"
             style="text-align:center;text-anchor:middle;fill:#ffffff;fill-opacity:1"
             id="path1225" />
          <path
             d="m 717.82484,545.19102 q -2.4,1.92 -6.08,3.04 -3.6,1.12 -7.68,1.12 -4.56,0 -7.92,-1.44 -3.36,-1.52 -5.52,-4.24 -2.16,-2.8 -3.2,-6.64 -1.04,-3.84 -1.04,-8.64 0,-10.24 4.56,-15.6 4.56,-5.36 13.04,-5.36 2.72,0 5.44,0.64 2.72,0.56 4.88,2.24 2.16,1.68 3.52,4.8 1.36,3.04 1.36,8.08 0,2.64 -0.48,5.84 h -25.68 q 0,3.52 0.72,6.24 0.72,2.72 2.24,4.64 1.52,1.84 3.92,2.88 2.48,0.96 6,0.96 2.72,0 5.44,-0.96 2.72,-0.96 4.08,-2.24 z m -13.76,-32.16 q -4.72,0 -7.6,2.48 -2.8,2.48 -3.36,8.48 h 19.84 q 0,-6.08 -2.32,-8.48 -2.32,-2.48 -6.56,-2.48 z"
             style="text-align:center;text-anchor:middle;fill:#ffffff;fill-opacity:1"
             id="path1227" />
          <path
             d="m 748.12984,514.55102 q -2.4,-0.8 -4.56,-0.8 -3.44,0 -5.44,1.92 -2,1.84 -2.48,4.72 v 28 h -6.4 v -40 h 4.48 l 1.2,4.88 h 0.32 q 1.52,-2.72 3.6,-4.16 2.16,-1.52 5.44,-1.52 2.32,0 5.2,0.8 z"
             style="text-align:center;text-anchor:middle;fill:#ffffff;fill-opacity:1"
             id="path1229" />
          <path
             d="m 774.03734,537.51102 q 0,-2.4 -1.44,-3.76 -1.44,-1.36 -3.6,-2.24 -2.08,-0.96 -4.64,-1.76 -2.48,-0.88 -4.64,-2.16 -2.08,-1.36 -3.52,-3.44 -1.44,-2.08 -1.44,-5.6 0,-5.76 3.28,-8.4 3.28,-2.72 9.12,-2.72 4.32,0 7.2,0.8 2.96,0.72 5.12,1.76 l -1.52,5.28 q -1.84,-0.88 -4.48,-1.52 -2.56,-0.72 -5.52,-0.72 -3.52,0 -5.2,1.2 -1.6,1.2 -1.6,4.16 0,2.08 1.44,3.28 1.44,1.12 3.52,2.08 2.16,0.88 4.64,1.76 2.56,0.88 4.64,2.32 2.16,1.44 3.6,3.68 1.44,2.16 1.44,5.76 0,2.56 -0.88,4.8 -0.8,2.24 -2.56,3.84 -1.76,1.6 -4.4,2.48 -2.56,0.96 -6.08,0.96 -4.56,0 -7.76,-0.88 -3.2,-0.88 -5.36,-2.08 l 1.92,-5.44 q 1.84,1.04 4.8,1.92 2.96,0.88 6,0.88 3.44,0 5.68,-1.36 2.24,-1.36 2.24,-4.88 z"
             style="text-align:center;text-anchor:middle;fill:#ffffff;fill-opacity:1"
             id="path1231" />
          <path
             d="m 810.95359,511.35102 q 3.04,-1.84 7.04,-2.72 4.08,-0.88 8.48,-0.88 4.16,0 6.64,1.12 2.56,1.12 3.84,2.96 1.36,1.76 1.76,3.92 0.48,2.16 0.48,4.32 0,4.8 -0.24,9.36 -0.24,4.56 -0.24,8.64 0,2.96 0.24,5.6 0.24,2.64 0.88,4.88 h -4.72 l -1.68,-5.6 h -0.4 q -0.72,1.12 -1.84,2.24 -1.04,1.04 -2.56,1.92 -1.52,0.8 -3.52,1.36 -2,0.56 -4.56,0.56 -2.56,0 -4.8,-0.8 -2.16,-0.8 -3.76,-2.24 -1.6,-1.52 -2.56,-3.6 -0.88,-2.08 -0.88,-4.72 0,-3.52 1.44,-5.84 1.44,-2.4 4,-3.76 2.64,-1.44 6.24,-2 3.68,-0.64 8.08,-0.64 1.12,0 2.16,0 1.12,0 2.24,0.16 0.24,-2.4 0.24,-4.32 0,-4.4 -1.76,-6.16 -1.76,-1.76 -6.4,-1.76 -1.36,0 -2.96,0.24 -1.52,0.16 -3.2,0.56 -1.6,0.32 -3.12,0.88 -1.44,0.48 -2.56,1.12 z m 11.36,32.08 q 2.24,0 4,-0.56 1.76,-0.64 3.04,-1.52 1.28,-0.96 2.08,-2.08 0.88,-1.12 1.28,-2.16 v -6.64 q -1.12,-0.08 -2.32,-0.08 -1.12,-0.08 -2.24,-0.08 -2.48,0 -4.88,0.32 -2.32,0.24 -4.16,1.04 -1.76,0.72 -2.88,2.08 -1.04,1.28 -1.04,3.28 0,2.8 2,4.64 2,1.76 5.12,1.76 z"
             style="text-align:center;text-anchor:middle;fill:#ffffff;fill-opacity:1"
             id="path1233" />
          <path
             d="m 876.96109,548.39102 v -22.8 q 0,-6.24 -1.84,-9.36 -1.76,-3.2 -6.56,-3.2 -4.24,0 -7.04,2.32 -2.72,2.24 -3.84,5.68 v 27.36 h -6.4 v -40 h 4.48 l 1.2,4.88 h 0.32 q 1.92,-2.56 5.12,-4.16 3.28,-1.68 7.76,-1.68 3.28,0 5.76,0.8 2.48,0.72 4.08,2.64 1.68,1.92 2.48,5.2 0.88,3.2 0.88,8.16 v 24.16 z"
             style="text-align:center;text-anchor:middle;fill:#ffffff;fill-opacity:1"
             id="path1235" />
          <path
             d="m 925.75109,534.63102 q 0,4.08 0.08,7.44 0.08,3.28 0.72,6.48 h -4.32 l -1.6,-5.68 h -0.32 q -1.6,2.8 -4.64,4.64 -3.04,1.84 -7.12,1.84 -8,0 -11.92,-5.04 -3.84,-5.04 -3.84,-15.76 0,-10.24 4.8,-15.52 4.88,-5.36 13.36,-5.36 2.96,0 4.64,0.32 1.76,0.32 3.76,1.04 v -16.64 h 6.4 z m -16.16,9.12 q 4.08,0 6.48,-2.08 2.4,-2.16 3.28,-6.48 v -19.84 q -1.44,-1.12 -3.28,-1.6 -1.84,-0.48 -4.88,-0.48 -5.52,0 -8.64,3.68 -3.12,3.6 -3.12,11.6 0,3.28 0.48,6.08 0.56,2.8 1.76,4.8 1.2,2 3.12,3.2 2,1.12 4.8,1.12 z"
             style="text-align:center;text-anchor:middle;fill:#ffffff;fill-opacity:1"
             id="path1237" />
          <path
             d="m 244.89672,637.51102 q 0,-2.4 -1.44,-3.76 -1.44,-1.36 -3.6,-2.24 -2.08,-0.96 -4.64,-1.76 -2.48,-0.88 -4.64,-2.16 -2.08,-1.36 -3.52,-3.44 -1.44,-2.08 -1.44,-5.6 0,-5.76 3.28,-8.4 3.28,-2.72 9.12,-2.72 4.32,0 7.2,0.8 2.96,0.72 5.12,1.76 l -1.52,5.28 q -1.84,-0.88 -4.48,-1.52 -2.56,-0.72 -5.52,-0.72 -3.52,0 -5.2,1.2 -1.6,1.2 -1.6,4.16 0,2.08 1.44,3.28 1.44,1.12 3.52,2.08 2.16,0.88 4.64,1.76 2.56,0.88 4.64,2.32 2.16,1.44 3.6,3.68 1.44,2.16 1.44,5.76 0,2.56 -0.88,4.8 -0.8,2.24 -2.56,3.84 -1.76,1.6 -4.4,2.48 -2.56,0.96 -6.08,0.96 -4.56,0 -7.76,-0.88 -3.2,-0.88 -5.36,-2.08 l 1.92,-5.44 q 1.84,1.04 4.8,1.92 2.96,0.88 6,0.88 3.44,0 5.68,-1.36 2.24,-1.36 2.24,-4.88 z"
             style="text-align:center;text-anchor:middle;fill:#ffffff;fill-opacity:1"
             id="path1239" />
          <path
             d="m 284.48672,648.39102 v -22.64 q 0,-3.2 -0.32,-5.52 -0.24,-2.4 -1.04,-4 -0.8,-1.6 -2.32,-2.4 -1.44,-0.8 -3.84,-0.8 -3.68,0 -6.16,2.24 -2.4,2.24 -3.36,5.6 v 27.52 h -6.4 v -40 h 4.48 l 1.2,4.88 h 0.32 q 2.16,-2.56 4.96,-4.16 2.88,-1.68 7.44,-1.68 3.84,0 6.24,1.52 2.48,1.44 3.84,5.12 1.84,-3.12 5.04,-4.88 3.28,-1.76 7.36,-1.76 3.36,0 5.68,0.8 2.32,0.72 3.84,2.64 1.52,1.92 2.16,5.2 0.72,3.28 0.72,8.32 v 24 h -6.4 v -24.08 q 0,-2.88 -0.32,-4.96 -0.24,-2.16 -1.12,-3.52 -0.8,-1.44 -2.32,-2.08 -1.44,-0.72 -3.84,-0.72 -4,0 -6.24,2.24 -2.24,2.24 -3.2,6.4 v 26.72 z"
             style="text-align:center;text-anchor:middle;fill:#ffffff;fill-opacity:1"
             id="path1241" />
          <path
             d="m 325.40672,611.35102 q 3.04,-1.84 7.04,-2.72 4.08,-0.88 8.48,-0.88 4.16,0 6.64,1.12 2.56,1.12 3.84,2.96 1.36,1.76 1.76,3.92 0.48,2.16 0.48,4.32 0,4.8 -0.24,9.36 -0.24,4.56 -0.24,8.64 0,2.96 0.24,5.6 0.24,2.64 0.88,4.88 h -4.72 l -1.68,-5.6 h -0.4 q -0.72,1.12 -1.84,2.24 -1.04,1.04 -2.56,1.92 -1.52,0.8 -3.52,1.36 -2,0.56 -4.56,0.56 -2.56,0 -4.8,-0.8 -2.16,-0.8 -3.76,-2.24 -1.6,-1.52 -2.56,-3.6 -0.88,-2.08 -0.88,-4.72 0,-3.52 1.44,-5.84 1.44,-2.4 4,-3.76 2.64,-1.44 6.24,-2 3.68,-0.64 8.08,-0.64 1.12,0 2.16,0 1.12,0 2.24,0.16 0.24,-2.4 0.24,-4.32 0,-4.4 -1.76,-6.16 -1.76,-1.76 -6.4,-1.76 -1.36,0 -2.96,0.24 -1.52,0.16 -3.2,0.56 -1.6,0.32 -3.12,0.88 -1.44,0.48 -2.56,1.12 z m 11.36,32.08 q 2.24,0 4,-0.56 1.76,-0.64 3.04,-1.52 1.28,-0.96 2.08,-2.08 0.88,-1.12 1.28,-2.16 v -6.64 q -1.12,-0.08 -2.32,-0.08 -1.12,-0.08 -2.24,-0.08 -2.48,0 -4.88,0.32 -2.32,0.24 -4.16,1.04 -1.76,0.72 -2.88,2.08 -1.04,1.28 -1.04,3.28 0,2.8 2,4.64 2,1.76 5.12,1.76 z"
             style="text-align:center;text-anchor:middle;fill:#ffffff;fill-opacity:1"
             id="path1243" />
          <path
             d="m 372.85422,638.55102 q 0,2.8 0.96,4 0.96,1.2 2.72,1.2 1.04,0 2.24,-0.16 1.2,-0.16 2.72,-0.72 l 0.72,5.04 q -1.28,0.64 -3.6,1.04 -2.24,0.4 -3.92,0.4 -3.6,0 -5.92,-2 -2.32,-2.08 -2.32,-6.96 v -48 h 6.4 z"
             style="text-align:center;text-anchor:middle;fill:#ffffff;fill-opacity:1"
             id="path1245" />
          <path
             d="m 396.29172,638.55102 q 0,2.8 0.96,4 0.96,1.2 2.72,1.2 1.04,0 2.24,-0.16 1.2,-0.16 2.72,-0.72 l 0.72,5.04 q -1.28,0.64 -3.6,1.04 -2.24,0.4 -3.92,0.4 -3.6,0 -5.92,-2 -2.32,-2.08 -2.32,-6.96 v -48 h 6.4 z"
             style="text-align:center;text-anchor:middle;fill:#ffffff;fill-opacity:1"
             id="path1247" />
          <path
             d="m 434.01547,592.39102 h 6.4 v 19.92 h 0.32 q 1.84,-2.32 4.64,-3.6 2.88,-1.28 6.24,-1.28 7.76,0 11.6,4.96 3.92,4.96 3.92,15.36 0,10.48 -5.12,15.92 -5.12,5.44 -14.4,5.44 -4.48,0 -8.16,-0.96 -3.6,-0.96 -5.44,-2.08 z m 16.48,20.64 q -4,0 -6.48,2.24 -2.48,2.24 -3.6,6.32 v 20.16 q 1.52,0.88 3.68,1.36 2.16,0.4 4.48,0.4 5.44,0 8.64,-3.84 3.28,-3.84 3.28,-12 0,-3.12 -0.56,-5.84 -0.56,-2.72 -1.76,-4.64 -1.2,-1.92 -3.12,-3.04 -1.84,-1.12 -4.56,-1.12 z"
             style="text-align:center;text-anchor:middle;fill:#ffffff;fill-opacity:1"
             id="path1249" />
          <path
             d="m 482.90047,608.39102 v 22.8 q 0,3.12 0.32,5.52 0.4,2.32 1.28,3.92 0.88,1.52 2.4,2.32 1.52,0.8 3.84,0.8 2.16,0 3.84,-0.64 1.68,-0.72 2.96,-1.92 1.36,-1.2 2.32,-2.72 1.04,-1.6 1.68,-3.36 v -26.72 h 6.4 v 28.64 q 0,2.88 0.16,6 0.24,3.04 0.72,5.36 h -4.4 l -1.6,-6.32 h -0.4 q -1.84,3.12 -4.96,5.2 -3.12,2.08 -7.92,2.08 -3.2,0 -5.68,-0.8 -2.4,-0.72 -4.08,-2.64 -1.6,-1.92 -2.48,-5.12 -0.8,-3.28 -0.8,-8.24 v -24.16 z"
             style="text-align:center;text-anchor:middle;fill:#ffffff;fill-opacity:1"
             id="path1251" />
          <path
             d="m 537.86547,637.51102 q 0,-2.4 -1.44,-3.76 -1.44,-1.36 -3.6,-2.24 -2.08,-0.96 -4.64,-1.76 -2.48,-0.88 -4.64,-2.16 -2.08,-1.36 -3.52,-3.44 -1.44,-2.08 -1.44,-5.6 0,-5.76 3.28,-8.4 3.28,-2.72 9.12,-2.72 4.32,0 7.2,0.8 2.96,0.72 5.12,1.76 l -1.52,5.28 q -1.84,-0.88 -4.48,-1.52 -2.56,-0.72 -5.52,-0.72 -3.52,0 -5.2,1.2 -1.6,1.2 -1.6,4.16 0,2.08 1.44,3.28 1.44,1.12 3.52,2.08 2.16,0.88 4.64,1.76 2.56,0.88 4.64,2.32 2.16,1.44 3.6,3.68 1.44,2.16 1.44,5.76 0,2.56 -0.88,4.8 -0.8,2.24 -2.56,3.84 -1.76,1.6 -4.4,2.48 -2.56,0.96 -6.08,0.96 -4.56,0 -7.76,-0.88 -3.2,-0.88 -5.36,-2.08 l 1.92,-5.44 q 1.84,1.04 4.8,1.92 2.96,0.88 6,0.88 3.44,0 5.68,-1.36 2.24,-1.36 2.24,-4.88 z"
             style="text-align:center;text-anchor:middle;fill:#ffffff;fill-opacity:1"
             id="path1253" />
          <path
             d="m 555.37547,608.39102 h 6.4 v 40 h -6.4 z m -1.36,-12.16 q 0,-1.84 1.2,-3.12 1.28,-1.36 3.2,-1.36 1.92,0 3.28,1.36 1.36,1.28 1.36,3.12 0,1.84 -1.36,3.04 -1.36,1.2 -3.28,1.2 -1.92,0 -3.2,-1.2 -1.2,-1.2 -1.2,-3.04 z"
             style="text-align:center;text-anchor:middle;fill:#ffffff;fill-opacity:1"
             id="path1255" />
          <path
             d="m 601.10172,648.39102 v -22.8 q 0,-6.24 -1.84,-9.36 -1.76,-3.2 -6.56,-3.2 -4.24,0 -7.04,2.32 -2.72,2.24 -3.84,5.68 v 27.36 h -6.4 v -40 h 4.48 l 1.2,4.88 h 0.32 q 1.92,-2.56 5.12,-4.16 3.28,-1.68 7.76,-1.68 3.28,0 5.76,0.8 2.48,0.72 4.08,2.64 1.68,1.92 2.48,5.2 0.88,3.2 0.88,8.16 v 24.16 z"
             style="text-align:center;text-anchor:middle;fill:#ffffff;fill-opacity:1"
             id="path1257" />
          <path
             d="m 648.37172,645.19102 q -2.4,1.92 -6.08,3.04 -3.6,1.12 -7.68,1.12 -4.56,0 -7.92,-1.44 -3.36,-1.52 -5.52,-4.24 -2.16,-2.8 -3.2,-6.64 -1.04,-3.84 -1.04,-8.64 0,-10.24 4.56,-15.6 4.56,-5.36 13.04,-5.36 2.72,0 5.44,0.64 2.72,0.56 4.88,2.24 2.16,1.68 3.52,4.8 1.36,3.04 1.36,8.08 0,2.64 -0.48,5.84 h -25.68 q 0,3.52 0.72,6.24 0.72,2.72 2.24,4.64 1.52,1.84 3.92,2.88 2.48,0.96 6,0.96 2.72,0 5.44,-0.96 2.72,-0.96 4.08,-2.24 z m -13.76,-32.16 q -4.72,0 -7.6,2.48 -2.8,2.48 -3.36,8.48 h 19.84 q 0,-6.08 -2.32,-8.48 -2.32,-2.48 -6.56,-2.48 z"
             style="text-align:center;text-anchor:middle;fill:#ffffff;fill-opacity:1"
             id="path1259" />
          <path
             d="m 677.39672,637.51102 q 0,-2.4 -1.44,-3.76 -1.44,-1.36 -3.6,-2.24 -2.08,-0.96 -4.64,-1.76 -2.48,-0.88 -4.64,-2.16 -2.08,-1.36 -3.52,-3.44 -1.44,-2.08 -1.44,-5.6 0,-5.76 3.28,-8.4 3.28,-2.72 9.12,-2.72 4.32,0 7.2,0.8 2.96,0.72 5.12,1.76 l -1.52,5.28 q -1.84,-0.88 -4.48,-1.52 -2.56,-0.72 -5.52,-0.72 -3.52,0 -5.2,1.2 -1.6,1.2 -1.6,4.16 0,2.08 1.44,3.28 1.44,1.12 3.52,2.08 2.16,0.88 4.64,1.76 2.56,0.88 4.64,2.32 2.16,1.44 3.6,3.68 1.44,2.16 1.44,5.76 0,2.56 -0.88,4.8 -0.8,2.24 -2.56,3.84 -1.76,1.6 -4.4,2.48 -2.56,0.96 -6.08,0.96 -4.56,0 -7.76,-0.88 -3.2,-0.88 -5.36,-2.08 l 1.92,-5.44 q 1.84,1.04 4.8,1.92 2.96,0.88 6,0.88 3.44,0 5.68,-1.36 2.24,-1.36 2.24,-4.88 z"
             style="text-align:center;text-anchor:middle;fill:#ffffff;fill-opacity:1"
             id="path1261" />
          <path
             d="m 711.14672,637.51102 q 0,-2.4 -1.44,-3.76 -1.44,-1.36 -3.6,-2.24 -2.08,-0.96 -4.64,-1.76 -2.48,-0.88 -4.64,-2.16 -2.08,-1.36 -3.52,-3.44 -1.44,-2.08 -1.44,-5.6 0,-5.76 3.28,-8.4 3.28,-2.72 9.12,-2.72 4.32,0 7.2,0.8 2.96,0.72 5.12,1.76 l -1.52,5.28 q -1.84,-0.88 -4.48,-1.52 -2.56,-0.72 -5.52,-0.72 -3.52,0 -5.2,1.2 -1.6,1.2 -1.6,4.16 0,2.08 1.44,3.28 1.44,1.12 3.52,2.08 2.16,0.88 4.64,1.76 2.56,0.88 4.64,2.32 2.16,1.44 3.6,3.68 1.44,2.16 1.44,5.76 0,2.56 -0.88,4.8 -0.8,2.24 -2.56,3.84 -1.76,1.6 -4.4,2.48 -2.56,0.96 -6.08,0.96 -4.56,0 -7.76,-0.88 -3.2,-0.88 -5.36,-2.08 l 1.92,-5.44 q 1.84,1.04 4.8,1.92 2.96,0.88 6,0.88 3.44,0 5.68,-1.36 2.24,-1.36 2.24,-4.88 z"
             style="text-align:center;text-anchor:middle;fill:#ffffff;fill-opacity:1"
             id="path1263" />
          <path
             d="m 756.49672,645.19102 q -2.4,1.92 -6.08,3.04 -3.6,1.12 -7.68,1.12 -4.56,0 -7.92,-1.44 -3.36,-1.52 -5.52,-4.24 -2.16,-2.8 -3.2,-6.64 -1.04,-3.84 -1.04,-8.64 0,-10.24 4.56,-15.6 4.56,-5.36 13.04,-5.36 2.72,0 5.44,0.64 2.72,0.56 4.88,2.24 2.16,1.68 3.52,4.8 1.36,3.04 1.36,8.08 0,2.64 -0.48,5.84 h -25.68 q 0,3.52 0.72,6.24 0.72,2.72 2.24,4.64 1.52,1.84 3.92,2.88 2.48,0.96 6,0.96 2.72,0 5.44,-0.96 2.72,-0.96 4.08,-2.24 z m -13.76,-32.16 q -4.72,0 -7.6,2.48 -2.8,2.48 -3.36,8.48 h 19.84 q 0,-6.08 -2.32,-8.48 -2.32,-2.48 -6.56,-2.48 z"
             style="text-align:center;text-anchor:middle;fill:#ffffff;fill-opacity:1"
             id="path1265" />
          <path
             d="m 785.52172,637.51102 q 0,-2.4 -1.44,-3.76 -1.44,-1.36 -3.6,-2.24 -2.08,-0.96 -4.64,-1.76 -2.48,-0.88 -4.64,-2.16 -2.08,-1.36 -3.52,-3.44 -1.44,-2.08 -1.44,-5.6 0,-5.76 3.28,-8.4 3.28,-2.72 9.12,-2.72 4.32,0 7.2,0.8 2.96,0.72 5.12,1.76 l -1.52,5.28 q -1.84,-0.88 -4.48,-1.52 -2.56,-0.72 -5.52,-0.72 -3.52,0 -5.2,1.2 -1.6,1.2 -1.6,4.16 0,2.08 1.44,3.28 1.44,1.12 3.52,2.08 2.16,0.88 4.64,1.76 2.56,0.88 4.64,2.32 2.16,1.44 3.6,3.68 1.44,2.16 1.44,5.76 0,2.56 -0.88,4.8 -0.8,2.24 -2.56,3.84 -1.76,1.6 -4.4,2.48 -2.56,0.96 -6.08,0.96 -4.56,0 -7.76,-0.88 -3.2,-0.88 -5.36,-2.08 l 1.92,-5.44 q 1.84,1.04 4.8,1.92 2.96,0.88 6,0.88 3.44,0 5.68,-1.36 2.24,-1.36 2.24,-4.88 z"
             style="text-align:center;text-anchor:middle;fill:#ffffff;fill-opacity:1"
             id="path1267" />
          <path
             d="m 799.43172,644.71102 q 0,-2.16 1.2,-3.36 1.28,-1.28 3.36,-1.28 2.16,0 3.44,1.28 1.28,1.2 1.28,3.36 0,2.08 -1.28,3.36 -1.28,1.28 -3.44,1.28 -2.08,0 -3.36,-1.28 -1.2,-1.28 -1.2,-3.36 z"
             style="text-align:center;text-anchor:middle;fill:#ffffff;fill-opacity:1"
             id="path1269" />
        </g>
        <flowRoot
           xml:space="preserve"
           id="flowRoot1049"
           style="fill:black;fill-opacity:1;stroke:none;font-family:'PT Sans';font-style:normal;font-weight:normal;font-size:80px;line-height:1.25;letter-spacing:0px;word-spacing:0px;-inkscape-font-specification:'PT Sans, Normal';font-stretch:normal;font-variant:normal;text-anchor:start;text-align:start;writing-mode:lr;font-variant-ligatures:normal;font-variant-caps:normal;font-variant-numeric:normal;font-feature-settings:normal"><flowRegion
             id="flowRegion1051"><rect
               id="rect1053"
               width="6.4614758"
               height="113.07582"
               x="807.68445"
               y="225.40445" /></flowRegion><flowPara
             id="flowPara1055" /></flowRoot>      </g>
    </g>
  </g>
</svg>
